<?xml version="1.0" standalone="no"?>
<!DOCTYPE svg PUBLIC "-//W3C//DTD SVG 1.1//EN" "http://www.w3.org/Graphics/SVG/1.1/DTD/svg11.dtd" >
<svg xmlns="http://www.w3.org/2000/svg" xmlns:xlink="http://www.w3.org/1999/xlink" version="1.1">
<metadata>
Created by FontForge 20161116 at Thu Dec 10 22:26:54 1992
 By Jimmy Wärting
Copyright 1990-1993 Bitstream Inc.  All rights reserved.
</metadata>
<defs>
<font id="GeometricSlab703BT-Medium" horiz-adv-x="1024" >
  <font-face 
    font-family="GeoSlab703 Md BT"
    font-weight="400"
    font-stretch="normal"
    units-per-em="2048"
    panose-1="2 6 6 3 2 2 5 2 4 3"
    ascent="1638"
    descent="-410"
    x-height="938"
    cap-height="1475"
    bbox="-342 -483 2572 1972"
    underline-thickness="117"
    underline-position="-271"
    unicode-range="U+0020-F002"
  />
<missing-glyph horiz-adv-x="1229" 
d="M102 -362v1806h1024v-1806h-1024zM217 -248h795v1577h-795v-1577z" />
    <glyph glyph-name=".notdef" horiz-adv-x="1229" 
d="M102 -362v1806h1024v-1806h-1024zM217 -248h795v1577h-795v-1577z" />
    <glyph glyph-name=".null" horiz-adv-x="0" 
 />
    <glyph glyph-name="nonmarkingreturn" horiz-adv-x="541" 
 />
    <glyph glyph-name="space" unicode=" " horiz-adv-x="541" 
 />
    <glyph glyph-name="exclam" unicode="!" horiz-adv-x="653" 
d="M399 362h-143l-39 1113h221zM328 -25q-58 0 -96.5 38t-38.5 96q0 57 38.5 96t96.5 39q56 0 94.5 -39t38.5 -96q0 -56 -38.5 -95t-94.5 -39z" />
    <glyph glyph-name="quotedbl" unicode="&#x22;" horiz-adv-x="590" 
d="M496 1434v-553h-119v553h119zM211 1434v-553h-117v553h117z" />
    <glyph glyph-name="numbersign" unicode="#" horiz-adv-x="1575" 
d="M973 862h-264l-95 -272h263zM922 1456l-166 -471h260l168 471h143l-164 -471h307l-43 -123h-311l-94 -272h330l-43 -123h-332l-166 -469h-145l168 469h-265l-168 -469h-143l166 469h-320l43 123h320l96 272h-342l43 123h344l168 471h146z" />
    <glyph glyph-name="dollar" unicode="$" horiz-adv-x="1081" 
d="M600 633v-504h12q118 0 196.5 72t78.5 176q0 95 -77 163.5t-210 92.5zM500 831v431q-102 -6 -161.5 -62t-59.5 -143q0 -83 56.5 -140.5t164.5 -85.5zM109 463h133q15 -136 83 -222t175 -106v522q-194 43 -288.5 137.5t-94.5 243.5q0 151 105.5 251.5t277.5 111.5v106h100
v-112q83 -11 146 -53t98 -111l-8 153h118v-395h-120q-31 116 -90 183.5t-144 82.5v-448q234 -57 341.5 -155t107.5 -255q0 -177 -125.5 -291.5t-323.5 -116.5v-165h-100v166q-96 17 -163.5 68t-113.5 141l4 -199h-118v463z" />
    <glyph glyph-name="percent" unicode="%" horiz-adv-x="1804" 
d="M434 883q87 0 145 58.5t58 145.5q0 89 -58.5 148t-144.5 59t-145.5 -59.5t-59.5 -147.5q0 -85 60 -144.5t145 -59.5zM782 1087q0 -145 -101.5 -246.5t-246.5 -101.5q-143 0 -245.5 101.5t-102.5 246.5q0 147 101 248t247 101t247 -101t101 -248zM1319 1464h125
l-961 -1493h-121zM1370 143q87 0 146 59t59 146q0 89 -59 148t-146 59q-86 0 -144.5 -59.5t-58.5 -147.5q0 -86 59 -145.5t144 -59.5zM1720 348q0 -145 -102.5 -246.5t-247.5 -101.5q-143 0 -244.5 101.5t-101.5 246.5q0 147 100.5 247.5t245.5 100.5q146 0 248 -101
t102 -247z" />
    <glyph glyph-name="ampersand" unicode="&#x26;" horiz-adv-x="1399" 
d="M1370 0h-266l-172 184q-111 -115 -218.5 -164t-250.5 -49q-180 0 -293 105.5t-113 271.5q0 127 67 230t232 225q-97 113 -140.5 202.5t-43.5 172.5q0 143 96.5 234t249.5 91q154 0 248 -91.5t94 -242.5q0 -101 -64.5 -194.5t-201.5 -190.5l338 -368q64 84 107 178.5
t65 198.5h-168v141h434v-141h-123q-31 -130 -85.5 -249t-135.5 -233l162 -164h182v-147zM502 895q99 74 142.5 141.5t43.5 147.5q0 82 -44 134t-114 52q-78 0 -127 -48t-49 -126q0 -71 34.5 -141.5t113.5 -159.5zM831 293l-362 387q-116 -83 -163.5 -153t-47.5 -156
q0 -108 70 -172t190 -64q85 0 166.5 41t146.5 117z" />
    <glyph glyph-name="quotesingle" unicode="'" horiz-adv-x="305" 
d="M211 1434v-553h-117v553h117z" />
    <glyph glyph-name="parenleft" unicode="(" horiz-adv-x="668" 
d="M455 -219q-159 196 -241.5 414.5t-82.5 445.5q0 228 82.5 447.5t241.5 414.5l123 -92q-131 -177 -199 -372.5t-68 -397.5q0 -207 70 -405.5t201 -360.5z" />
    <glyph glyph-name="parenright" unicode=")" horiz-adv-x="668" 
d="M213 -219l-127 94q130 162 200 360.5t70 405.5q0 202 -67.5 397.5t-198.5 372.5l123 92q159 -195 241.5 -414.5t82.5 -447.5q0 -227 -82.5 -445.5t-241.5 -414.5z" />
    <glyph glyph-name="asterisk" unicode="*" 
d="M444 1503h146l-15 -264l244 109l51 -138l-268 -84l193 -188l-111 -94l-172 207l-170 -207l-111 94l193 188l-270 84l51 138l250 -109z" />
    <glyph glyph-name="plus" unicode="+" horiz-adv-x="1706" 
d="M913 1221v-551h539v-117h-539v-553h-118v553h-541v117h541v551h118z" />
    <glyph glyph-name="comma" unicode="," horiz-adv-x="541" 
d="M209 217h186l-139 -434h-176z" />
    <glyph glyph-name="hyphen" unicode="-" horiz-adv-x="631" 
d="M57 397v164h516v-164h-516z" />
    <glyph glyph-name="period" unicode="." horiz-adv-x="541" 
d="M270 -25q-58 0 -96.5 38t-38.5 96q0 57 39 96t96 39t96.5 -39.5t39.5 -95.5t-39.5 -95t-96.5 -39z" />
    <glyph glyph-name="slash" unicode="/" horiz-adv-x="627" 
d="M674 1503l-504 -1693h-115l504 1693h115z" />
    <glyph glyph-name="zero" unicode="0" horiz-adv-x="1081" 
d="M100 537v364q0 156 15 227.5t49 128.5q60 102 156 154.5t221 52.5t222 -53t155 -154q32 -55 46.5 -122.5t14.5 -190.5v-43v-412q0 -101 -9.5 -158.5t-31.5 -107.5q-51 -119 -155.5 -185.5t-241.5 -66.5q-124 0 -220.5 53.5t-156.5 155.5q-34 58 -49 129t-15 228zM281 541
q0 -116 8.5 -170t27.5 -92q34 -67 91.5 -103.5t130.5 -36.5t131.5 36.5t91.5 103.5q20 39 28.5 93t8.5 169v356q0 105 -6 151.5t-19 82.5q-27 76 -91 121.5t-144 45.5q-71 0 -129 -37t-93 -104q-19 -38 -27.5 -92t-8.5 -168v-356z" />
    <glyph glyph-name="one" unicode="1" horiz-adv-x="1081" 
d="M276 0v145h183v1147h-183v146h363v-1293h182v-145h-545z" />
    <glyph glyph-name="two" unicode="2" horiz-adv-x="1081" 
d="M119 907q-3 34 -3.5 49.5t-0.5 28.5q0 232 117.5 356.5t336.5 124.5q181 0 294.5 -106t113.5 -275q0 -92 -38.5 -181.5t-117.5 -178.5l-502 -578h498v261h178v-408h-886v137l573 684q54 63 81.5 131t27.5 140q0 99 -64 156t-176 57q-132 0 -196 -80t-64 -244
q0 -29 0.5 -44.5t1.5 -28.5z" />
    <glyph glyph-name="three" unicode="3" horiz-adv-x="1081" 
d="M262 452q5 -154 76 -236.5t201 -82.5q111 0 183.5 75.5t72.5 190.5q0 127 -81.5 198t-228.5 71h-6v141h6q135 0 215 70t80 186q0 112 -61 176t-168 64q-140 0 -207.5 -81t-67.5 -251v-17h-167v27q0 226 117.5 353.5t324.5 127.5q187 0 298.5 -107.5t111.5 -287.5
q0 -117 -58 -199.5t-168 -121.5q114 -27 179 -120.5t65 -230.5q0 -189 -125 -307.5t-328 -118.5q-194 0 -314 120t-120 312q0 17 0.5 28t1.5 21h168z" />
    <glyph glyph-name="four" unicode="4" horiz-adv-x="1081" 
d="M639 526v416q0 51 4.5 104.5t13.5 110.5l-405 -631h387zM434 0v145h205v242h-563v139l581 910h156v-910h178v-139h-178v-242h178v-145h-557z" />
    <glyph glyph-name="five" unicode="5" horiz-adv-x="1081" 
d="M274 428v-10q0 -131 69.5 -208t184.5 -77q128 0 202.5 86.5t74.5 235.5q0 158 -94 237.5t-281 79.5q-40 0 -97.5 -5t-129.5 -15v684h665v-148h-499v-362q26 1 51 1.5t59 0.5q239 0 372.5 -126t133.5 -349q0 -216 -124 -349t-324 -133q-199 0 -317 123t-118 330v4h172z
" />
    <glyph glyph-name="six" unicode="6" horiz-adv-x="1081" 
d="M811 1067q-15 119 -77 178.5t-171 59.5q-142 0 -200 -79.5t-58 -299.5v-164q56 54 125 81t152 27q179 0 298 -126.5t119 -317.5q0 -199 -120.5 -327t-309.5 -128q-204 0 -324 132.5t-120 359.5v528q0 224 117 348.5t327 124.5q182 0 296 -108.5t114 -280.5v-8h-168z
M563 129q114 0 185 81t71 214t-71 213t-185 80q-113 0 -183.5 -80t-70.5 -213t70.5 -214t183.5 -81z" />
    <glyph glyph-name="seven" unicode="7" horiz-adv-x="1081" 
d="M258 0l553 1286h-522v-264h-172v414h884v-131l-548 -1305h-195z" />
    <glyph glyph-name="eight" unicode="8" horiz-adv-x="1081" 
d="M541 133q110 0 185 75t75 185t-75.5 185t-184.5 75t-184.5 -75.5t-75.5 -184.5q0 -110 74.5 -185t185.5 -75zM344 741q-105 44 -163 129.5t-58 198.5q0 174 117.5 285.5t300.5 111.5q181 0 299 -111t118 -284q0 -114 -58 -201t-163 -129q112 -45 177 -142t65 -218
q0 -177 -124 -293.5t-314 -116.5q-193 0 -317 116.5t-124 293.5q0 121 66 218.5t178 141.5zM541 807q103 0 173 71.5t70 178.5q0 108 -69.5 180t-173.5 72t-174 -72t-70 -180q0 -106 70.5 -178t173.5 -72z" />
    <glyph glyph-name="nine" unicode="9" horiz-adv-x="1081" 
d="M266 369q14 -125 74.5 -182.5t175.5 -57.5q139 0 198.5 86t59.5 295v164q-56 -55 -124.5 -82t-149.5 -27q-180 0 -300 127t-120 318q0 198 121.5 326t310.5 128q204 0 323 -132t119 -359v-531q0 -224 -116 -347.5t-326 -123.5q-188 0 -304 109t-116 285v4h174zM518 1307
q-113 0 -184.5 -81t-71.5 -214t71 -213t185 -80t184 80t70 213t-70.5 214t-183.5 81z" />
    <glyph glyph-name="colon" unicode=":" horiz-adv-x="541" 
d="M270 -25q-58 0 -96.5 38t-38.5 96q0 57 39 96t96 39t96.5 -39.5t39.5 -95.5t-39.5 -95t-96.5 -39zM270 696q-58 0 -96.5 37.5t-38.5 93.5q0 58 39 97t96 39t96.5 -39.5t39.5 -96.5q0 -55 -39.5 -93t-96.5 -38z" />
    <glyph glyph-name="semicolon" unicode=";" horiz-adv-x="653" 
d="M346 696q-58 0 -96.5 37.5t-38.5 93.5q0 58 39 97t96 39t96 -39.5t39 -96.5q0 -55 -39 -93t-96 -38zM244 217h184l-137 -434h-176z" />
    <glyph glyph-name="less" unicode="&#x3c;" horiz-adv-x="1706" 
d="M1442 1018l-1000 -408l1000 -405v-129l-1178 483v103l1178 483v-127z" />
    <glyph glyph-name="equal" unicode="=" horiz-adv-x="1706" 
d="M1452 477v-117h-1198v117h1198zM1452 860v-117h-1198v117h1198z" />
    <glyph glyph-name="greater" unicode="&#x3e;" horiz-adv-x="1706" 
d="M1442 662v-103l-1178 -483v129l1000 405l-1000 408v127z" />
    <glyph glyph-name="question" unicode="?" horiz-adv-x="1108" 
d="M442 362l1 484q14 -1 29.5 -1.5t35.5 -0.5q125 0 198.5 69.5t73.5 186.5q0 113 -61 177t-170 64q-111 0 -170 -62t-70 -189h-166q2 195 109 304t297 109q193 0 303.5 -104.5t110.5 -286.5q0 -173 -94 -285t-255 -131v-334h-172zM516 -25q-58 0 -95.5 38t-37.5 96t38 96.5
t95 38.5t96 -39.5t39 -95.5t-39 -95t-96 -39z" />
    <glyph glyph-name="at" unicode="@" horiz-adv-x="2048" 
d="M1292 844l58 121h110l-141 -568q-6 -24 -9 -44t-3 -36q0 -44 27.5 -67t82.5 -23q45 0 100 24t103 64q89 76 139.5 196.5t50.5 254.5q0 266 -195.5 428t-518.5 162q-168 0 -312.5 -52t-259.5 -153q-140 -122 -211 -282.5t-71 -354.5q0 -173 60.5 -304t186.5 -230
q101 -81 240 -124.5t295 -43.5q172 0 334.5 48.5t296.5 139.5l45 -66q-147 -109 -313 -165t-347 -56q-191 0 -348 46.5t-276 138.5q-153 117 -228 272t-75 352q0 163 50.5 309t149.5 269q146 176 349.5 267t453.5 91q165 0 311 -43.5t248 -124.5q129 -99 195.5 -230
t66.5 -282q0 -169 -62.5 -308.5t-182.5 -236.5q-69 -55 -148.5 -83.5t-163.5 -28.5q-99 0 -148.5 39t-49.5 116q0 3 1 11t1 12q-51 -87 -127 -132.5t-170 -45.5q-153 0 -233.5 85t-80.5 247q0 230 137 389t332 159q91 0 153.5 -39.5t96.5 -117.5zM1202 473l60 242
q-17 90 -72 140t-135 50q-146 0 -244 -131.5t-98 -327.5q0 -110 51 -169.5t145 -59.5q102 0 183.5 70.5t109.5 185.5z" />
    <glyph glyph-name="A" unicode="A" horiz-adv-x="1360" 
d="M461 645h422l-177 515q-1 4 -4 13q-23 66 -30 119q-6 -31 -13.5 -60.5t-21.5 -72.5zM477 147v-147h-502v147h138l419 1180h-180v148h672v-148h-182l401 -1180h141v-147h-524v147h176l-116 351h-504l-117 -351h178z" />
    <glyph glyph-name="B" unicode="B" horiz-adv-x="1237" 
d="M410 713v-566h131q204 0 296.5 68t92.5 215q0 140 -98.5 211.5t-290.5 71.5h-131zM410 1327v-481h147q157 0 237 61t80 180t-79.5 179.5t-237.5 60.5h-147zM53 0v147h162v1180h-162v148h512q249 0 376.5 -93t127.5 -274q0 -115 -70 -199t-192 -114q169 -58 245 -147.5
t76 -229.5q0 -197 -127.5 -307.5t-355.5 -110.5h-592z" />
    <glyph glyph-name="C" unicode="C" horiz-adv-x="1536" 
d="M1454 465q-57 -234 -225.5 -364t-415.5 -130q-327 0 -538.5 216.5t-211.5 549.5q0 329 209.5 547.5t526.5 218.5q141 0 255.5 -42.5t188.5 -123.5v138h160v-457h-152q-50 157 -159.5 235t-280.5 78q-249 0 -398 -162t-149 -432q0 -264 155 -429t402 -165q165 0 276.5 80
t174.5 242h182z" />
    <glyph glyph-name="D" unicode="D" horiz-adv-x="1497" 
d="M410 1327v-1180h184q306 0 470.5 152.5t164.5 437.5t-164.5 437.5t-470.5 152.5h-184zM55 0v147h160v1180h-160v148h545q397 0 613.5 -193t216.5 -545q0 -351 -216.5 -544t-613.5 -193h-545z" />
    <glyph glyph-name="E" unicode="E" horiz-adv-x="1255" 
d="M55 0v147h160v1180h-160v148h1141v-400h-174v252h-612v-469h512v-162h-512v-549h612v289h174v-436h-1141z" />
    <glyph glyph-name="F" unicode="F" horiz-adv-x="1165" 
d="M55 0v147h160v1180h-160v148h1141v-400h-174v252h-612v-469h501v-162h-501v-549h208v-147h-563z" />
    <glyph glyph-name="G" unicode="G" horiz-adv-x="1692" 
d="M1473 0h-166v160q-109 -98 -224 -143.5t-254 -45.5q-329 0 -544 218t-215 548q0 331 214.5 548.5t544.5 217.5q128 0 240 -44.5t205 -133.5v150h162v-510h-133q-54 179 -174.5 272.5t-299.5 93.5q-240 0 -400.5 -167.5t-160.5 -426.5q0 -257 160.5 -425.5t400.5 -168.5
q182 0 303 90.5t175 266.5h-369v159h698v-159h-163v-500z" />
    <glyph glyph-name="H" unicode="H" horiz-adv-x="1487" 
d="M1075 840v487h-160v148h517v-148h-162v-1180h162v-147h-517v147h160v527h-665v-527h161v-147h-516v147h160v1180h-160v148h516v-148h-161v-487h665z" />
    <glyph glyph-name="I" unicode="I" horiz-adv-x="627" 
d="M410 147h161v-147h-516v147h160v1180h-160v148h516v-148h-161v-1180z" />
    <glyph glyph-name="J" unicode="J" horiz-adv-x="635" 
d="M0 -236v173q8 0 27 -1.5t28 -1.5q98 0 134 40t36 173v1180h-200v148h579v-148h-184v-1180q0 -198 -82 -290.5t-258 -92.5h-80z" />
    <glyph glyph-name="K" unicode="K" horiz-adv-x="1300" 
d="M410 147h161v-147h-516v147h160v1180h-160v148h516v-148h-161v-559l514 559h-150v148h512v-148h-135l-528 -567l544 -613h146v-147h-539v147h148l-512 580v-580z" />
    <glyph glyph-name="L" unicode="L" horiz-adv-x="1116" 
d="M55 0v147h160v1180h-160v148h541v-148h-186v-1180h493v289h174v-436h-1022z" />
    <glyph glyph-name="M" unicode="M" horiz-adv-x="1796" 
d="M403 147h160v-147h-508v147h166v1180h-166v148h475l377 -1041l387 1041h447v-148h-166v-1180h166v-147h-508v147h160v1141l-437 -1149h-116l-437 1149v-1141z" />
    <glyph glyph-name="N" unicode="N" horiz-adv-x="1473" 
d="M414 147h161v-147h-509v147h165v1180h-165v148h368l623 -1074v926h-162v148h510v-148h-166v-1356h-147l-678 1164v-988z" />
    <glyph glyph-name="O" unicode="O" horiz-adv-x="1659" 
d="M70 737q0 326 217 546t542 220q129 0 240.5 -35t208.5 -106q151 -109 232 -271t81 -354q0 -324 -218 -545t-544 -221q-325 0 -542 220t-217 546zM268 737q0 -258 160.5 -426t400.5 -168q241 0 401.5 168t160.5 426q0 259 -160.5 426.5t-401.5 167.5q-240 0 -400.5 -167.5
t-160.5 -426.5z" />
    <glyph glyph-name="P" unicode="P" horiz-adv-x="1190" 
d="M410 147h180v-147h-535v147h160v1180h-160v148h553q276 0 419.5 -117.5t143.5 -341.5q0 -216 -148 -337.5t-415 -121.5h-198v-410zM410 1331v-626h178q190 0 286.5 78.5t96.5 234.5t-103.5 234.5t-308.5 78.5h-149z" />
    <glyph glyph-name="Q" unicode="Q" horiz-adv-x="1659" 
d="M1161 43l64 -119h227v-176h-338l-117 240q-59 -8 -105 -12.5t-79 -4.5q-137 0 -262.5 48t-226.5 139q-124 109 -189 258t-65 321q0 327 217 546.5t542 219.5q129 0 240.5 -35t208.5 -106q151 -109 232 -271t81 -354q0 -227 -111 -406t-319 -288zM1085 201
q151 84 228.5 220t77.5 316q0 259 -160.5 426.5t-401.5 167.5q-240 0 -400.5 -167.5t-160.5 -426.5q0 -257 160.5 -425.5t400.5 -168.5q16 0 48 3t43 4l-80 165l151 78z" />
    <glyph glyph-name="R" unicode="R" horiz-adv-x="1323" 
d="M410 147h161v-147h-516v147h160v1180h-160v148h631q254 0 375 -90t121 -279q0 -122 -59.5 -203.5t-192.5 -140.5q109 -32 150.5 -98t41.5 -230v-287h162v-147h-356v406q0 177 -60 232.5t-221 55.5h-237v-547zM410 1327v-485h211q189 0 274.5 58t85.5 185
q0 131 -81.5 186.5t-278.5 55.5h-211z" />
    <glyph glyph-name="S" unicode="S" horiz-adv-x="1360" 
d="M328 160v-160h-166v506h166q43 -172 156.5 -268.5t271.5 -96.5q119 0 199.5 74t80.5 184q0 96 -65 155.5t-217 100.5l-154 41q-220 60 -320 157.5t-100 252.5q0 179 122 288t323 109q122 0 212.5 -39.5t147.5 -117.5v129h143v-424h-143q-38 138 -134.5 212t-238.5 74
q-113 0 -184.5 -60.5t-71.5 -156.5q0 -89 58 -140t217 -91l119 -31q255 -63 369 -169.5t114 -278.5q0 -190 -138 -314.5t-350 -124.5q-120 0 -234.5 51.5t-182.5 137.5z" />
    <glyph glyph-name="T" unicode="T" horiz-adv-x="1186" 
d="M690 147h162v-147h-518v147h162v1180h-281v-264h-166v412h1088v-412h-168v264h-279v-1180z" />
    <glyph glyph-name="U" unicode="U" horiz-adv-x="1456" 
d="M414 516q0 -204 73 -289.5t240 -85.5q168 0 241.5 86t73.5 289v811h-161v148h518v-148h-162v-811q0 -274 -126.5 -409.5t-383.5 -135.5t-382.5 135t-125.5 410v811h-162v148h516v-148h-159v-811z" />
    <glyph glyph-name="V" unicode="V" horiz-adv-x="1341" 
d="M608 -25l-438 1352h-143v148h489v-148h-147l303 -965l315 965h-162v148h490v-148h-144l-446 -1352h-117z" />
    <glyph glyph-name="W" unicode="W" horiz-adv-x="1933" 
d="M651 -25h-129l-401 1352h-127v148h475v-148h-158l291 -979l295 979h-168v148h496v-148h-170l297 -979l290 979h-157v148h454v-148h-127l-401 -1352h-127l-317 1059z" />
    <glyph glyph-name="X" unicode="X" horiz-adv-x="1341" 
d="M672 588l-281 -441h172v-147h-528v147h162l383 590l-381 590h-156v148h530v-148h-149l260 -420l283 420h-187v148h535v-148h-148l-387 -582l381 -598h154v-147h-547v147h178z" />
    <glyph glyph-name="Y" unicode="Y" horiz-adv-x="1343" 
d="M770 147h162v-147h-516v147h159v512l-387 668h-155v148h518v-148h-148l275 -489l287 489h-146v148h496v-148h-158l-387 -668v-512z" />
    <glyph glyph-name="Z" unicode="Z" horiz-adv-x="1327" 
d="M1016 147v304h166v-451h-1037v147l801 1180h-612v-254h-166v402h1014v-148l-807 -1180h641z" />
    <glyph glyph-name="bracketleft" unicode="[" horiz-adv-x="688" 
d="M205 -176v1651h424v-144h-248v-1366h248v-141h-424z" />
    <glyph glyph-name="backslash" unicode="\" horiz-adv-x="627" 
d="M508 -190l-504 1693h115l504 -1693h-115z" />
    <glyph glyph-name="bracketright" unicode="]" horiz-adv-x="688" 
d="M483 -176h-426v141h250v1366h-250v144h426v-1651z" />
    <glyph glyph-name="asciicircum" unicode="^" horiz-adv-x="2048" 
d="M1104 1458l520 -557h-158l-442 438l-442 -438h-160l520 557h162z" />
    <glyph glyph-name="underscore" unicode="_" 
d="M1024 -365v-118h-1024v118h1024z" />
    <glyph glyph-name="grave" unicode="`" 
d="M649 1075h-106l-281 348h178z" />
    <glyph glyph-name="a" unicode="a" horiz-adv-x="1262" 
d="M244 469q0 -150 92 -248t229 -98t228.5 98t91.5 248t-91.5 247t-228.5 97q-141 0 -231 -96.5t-90 -247.5zM1049 141h143v-141h-320v125q-57 -73 -141 -110.5t-190 -37.5q-205 0 -343.5 141.5t-138.5 350.5t139 351.5t343 142.5q103 0 185.5 -37t145.5 -111v123h320v-141
h-143v-656z" />
    <glyph glyph-name="b" unicode="b" horiz-adv-x="1251" 
d="M367 469q0 -149 91.5 -247.5t227.5 -98.5q138 0 230 98t92 248q0 151 -90.5 247.5t-231.5 96.5q-138 0 -228.5 -96.5t-90.5 -247.5zM59 1331v144h320v-650q69 71 149.5 104.5t182.5 33.5q205 0 343 -142.5t138 -351.5q0 -211 -140 -351.5t-354 -140.5q-100 0 -175.5 32
t-143.5 104v-113h-320v141h144v1190h-144z" />
    <glyph glyph-name="c" unicode="c" horiz-adv-x="1006" 
d="M854 272l94 -92q-77 -100 -185 -152.5t-239 -52.5q-213 0 -339 133.5t-126 356.5q0 224 122.5 361t322.5 137q91 0 161 -28t126 -87v90h137v-324h-125q-40 101 -111 152t-170 51q-127 0 -204.5 -96.5t-77.5 -255.5q0 -161 83 -251.5t232 -90.5q86 0 160.5 37t138.5 112z
" />
    <glyph glyph-name="d" unicode="d" horiz-adv-x="1251" 
d="M872 1331h-157v144h334v-1334h143v-141h-320v113q-68 -72 -143 -104t-176 -32q-214 0 -354 140.5t-140 351.5q0 209 138 351.5t344 142.5q101 0 181.5 -33.5t149.5 -104.5v506zM244 469q0 -150 92 -248t229 -98t228.5 98t91.5 248t-91.5 247t-228.5 97q-141 0 -231 -96.5
t-90 -247.5z" />
    <glyph glyph-name="e" unicode="e" horiz-adv-x="1114" 
d="M242 555h630q-20 129 -100.5 196.5t-214.5 67.5t-214.5 -67.5t-100.5 -196.5zM1032 279q-65 -142 -191.5 -223t-285.5 -81q-223 0 -359.5 138t-136.5 366q0 219 136 351.5t362 132.5q224 0 361 -143t137 -380v-22h-813q10 -132 103.5 -213.5t234.5 -81.5q89 0 164.5 40.5
t123.5 115.5h164z" />
    <glyph glyph-name="f" unicode="f" horiz-adv-x="621" 
d="M575 0h-522v141h160v656h-160v141h160v154q0 205 68.5 294t222.5 89q23 0 39.5 -0.5t36.5 -2.5v-131h-48q-81 0 -112 -42t-31 -187v-174h191v-141h-191v-656h186v-141z" />
    <glyph glyph-name="g" unicode="g" horiz-adv-x="1247" 
d="M1049 145v-34q0 -152 -11 -219.5t-37 -114.5q-53 -98 -165 -151.5t-263 -53.5q-175 0 -295.5 76t-166.5 217h186q31 -72 100 -109t174 -37q161 0 231 69t70 232v93q-68 -72 -143 -104t-176 -32q-214 0 -354 140.5t-140 351.5q0 209 138 351.5t344 142.5
q101 0 181.5 -33.5t149.5 -104.5v113h320v-141h-143v-652zM244 469q0 -150 92 -248t229 -98t228.5 98t91.5 248t-91.5 247t-228.5 97q-141 0 -231 -96.5t-90 -247.5z" />
    <glyph glyph-name="h" unicode="h" horiz-adv-x="1190" 
d="M1020 141h143v-141h-465v141h146v422q0 148 -38 194t-128 46q-74 0 -146 -39t-149 -121v-502h145v-141h-465v141h144v1190h-144v144h320v-670q82 81 165.5 119.5t176.5 38.5q80 0 143 -28.5t103 -82.5q26 -35 37.5 -78.5t11.5 -128.5v-18v-486z" />
    <glyph glyph-name="i" unicode="i" horiz-adv-x="567" 
d="M135 1171v189h252v-189h-252zM387 141h164v-141h-500v141h162v656h-162v141h336v-797z" />
    <glyph glyph-name="j" unicode="j" horiz-adv-x="516" 
d="M133 1171v189h254v-189h-254zM387 29q0 -260 -84.5 -355.5t-296.5 -99.5v154q119 0 162 55t43 246v768h-162v141h338v-909z" />
    <glyph glyph-name="k" unicode="k" horiz-adv-x="1067" 
d="M207 1331h-144v144h314v-959l352 281h-129v141h444v-141h-102l-367 -297l359 -359h110v-141h-436v141h115l-346 342v-342h121v-141h-435v141h144v1190z" />
    <glyph glyph-name="l" unicode="l" horiz-adv-x="573" 
d="M207 1331h-162v144h338v-1334h162v-141h-500v141h162v1190z" />
    <glyph glyph-name="m" unicode="m" horiz-adv-x="1747" 
d="M387 805q100 97 168.5 127.5t153.5 30.5q100 0 163 -43.5t84 -128.5q85 91 162 131.5t164 40.5q153 0 223 -80t70 -256v-486h145v-141h-460v141h141v422q0 145 -35 193.5t-119 48.5q-79 0 -148.5 -44t-117.5 -126v-494h145v-141h-464v141h145v422q0 143 -33 192.5
t-112 49.5q-71 0 -137.5 -39t-137.5 -123v-502h141v-141h-460v141h145v656h-145v141h319v-133z" />
    <glyph glyph-name="n" unicode="n" horiz-adv-x="1194" 
d="M1024 141h143v-141h-462v141h143v422q0 148 -38 195t-128 47q-73 0 -145 -39.5t-150 -122.5v-502h145v-141h-464v141h145v656h-145v141h319v-133q82 81 165.5 119.5t176.5 38.5q81 0 144.5 -28.5t103.5 -82.5q25 -33 36 -73t11 -117v-35v-486z" />
    <glyph glyph-name="o" unicode="o" horiz-adv-x="1147" 
d="M59 471q0 210 147 351t367 141q221 0 367.5 -141t146.5 -351t-146.5 -352t-367.5 -142q-220 0 -367 142t-147 352zM242 471q0 -149 95 -247.5t236 -98.5q143 0 237.5 97.5t94.5 248.5t-94.5 248.5t-237.5 97.5q-141 0 -236 -98.5t-95 -247.5z" />
    <glyph glyph-name="p" unicode="p" horiz-adv-x="1223" 
d="M979 469q0 150 -91.5 247t-228.5 97t-228 -96.5t-91 -247.5q0 -150 91.5 -248t227.5 -98q138 0 229 97.5t91 248.5zM174 797h-143v141h319v-113q69 70 150.5 104t183.5 34q205 0 342 -142t137 -352q0 -212 -138.5 -352t-352.5 -140q-102 0 -178 32t-144 104v-398h154
v-141h-473v141h143v1082z" />
    <glyph glyph-name="q" unicode="q" horiz-adv-x="1262" 
d="M1049 797v-1082h143v-141h-473v141h153v398q-68 -72 -143 -104t-176 -32q-214 0 -354 140.5t-140 351.5q0 209 138 351.5t344 142.5q101 0 181.5 -33.5t149.5 -104.5v113h320v-141h-143zM244 469q0 -150 92 -248t229 -98t228.5 98t91.5 248t-91.5 247t-228.5 97
q-141 0 -231 -96.5t-90 -247.5z" />
    <glyph glyph-name="r" unicode="r" horiz-adv-x="737" 
d="M387 791q52 90 126.5 132t184.5 42q6 0 20 -1t21 -1v-158h-49q-143 0 -223 -75.5t-80 -211.5v-377h145v-141h-464v141h145v656h-145v141h319v-147z" />
    <glyph glyph-name="s" unicode="s" horiz-adv-x="973" 
d="M223 0h-137v305h137q38 -87 125 -138.5t197 -51.5q91 0 148 38.5t57 100.5q0 49 -32 76t-110 41l-221 39q-153 26 -225 94t-72 184q0 127 92.5 201t253.5 74q98 0 174 -29t107 -76v80h139v-289h-139q-49 97 -116.5 141t-166.5 44q-84 0 -134 -37t-50 -99
q0 -49 36.5 -77.5t116.5 -42.5l193 -33q175 -30 244 -91t69 -178q0 -135 -100 -218t-264 -83q-94 0 -173 29.5t-149 89.5v-94z" />
    <glyph glyph-name="t" unicode="t" horiz-adv-x="588" 
d="M340 332v-31q0 -113 19.5 -136.5t89.5 -23.5q11 0 65 9l10 1v-149q-30 -5 -65 -7.5t-82 -2.5q-115 0 -159 39.5t-44 140.5v625h-170v141h170v350h166v-350h184v-141h-184v-465z" />
    <glyph glyph-name="u" unicode="u" horiz-adv-x="1176" 
d="M170 797h-143v141h319v-563q0 -148 38 -194t128 -46q74 0 146 39t149 121v502h-145v141h321v-795h143v-143h-319v135q-83 -82 -166.5 -121t-175.5 -39q-153 0 -224 81t-71 257v484z" />
    <glyph glyph-name="v" unicode="v" horiz-adv-x="985" 
d="M420 -25l-324 822h-106v141h422v-141h-138l226 -572l229 572h-141v141h409v-141h-108l-324 -822h-145z" />
    <glyph glyph-name="w" unicode="w" horiz-adv-x="1501" 
d="M973 938v-141h-137l221 -535l200 535h-135v141h408v-141h-115l-303 -822h-100l-252 598l-250 -598h-100l-304 822h-114v141h422v-141h-133l198 -535l221 535h-135v141h408z" />
    <glyph glyph-name="x" unicode="x" 
d="M408 0h-404v141h125l281 328l-275 328h-117v141h433v-141h-115l188 -222l183 222h-99v141h402v-141h-123l-283 -318l295 -338h119v-141h-443v141h117l-194 228l-197 -228h107v-141z" />
    <glyph glyph-name="y" unicode="y" horiz-adv-x="1026" 
d="M592 -426h-490v141h172l144 326l-316 756h-125v141h451v-141h-152l234 -551l244 551h-144v141h432v-141h-124l-486 -1082h160v-141z" />
    <glyph glyph-name="z" unicode="z" horiz-adv-x="995" 
d="M909 0h-807v141l572 656h-398v-172h-151v313h766v-141l-576 -656h443v201h151v-342z" />
    <glyph glyph-name="braceleft" unicode="{" 
d="M858 1350q-8 0 -23 1t-22 1q-121 0 -164 -47t-43 -197v-242q0 -166 -43.5 -235.5t-154.5 -100.5q111 -30 154.5 -99.5t43.5 -235.5v-242q0 -149 43.5 -195.5t169.5 -46.5h39v-125h-35q-99 0 -159.5 12t-102.5 40q-55 36 -77.5 100t-22.5 213v244q0 152 -55 213t-189 61
q-7 0 -22 -1t-23 -1v127q8 0 23 -1t22 -1q134 0 189 61.5t55 214.5v244q0 153 22.5 215.5t77.5 97.5q42 28 102 40t160 12h35v-127z" />
    <glyph glyph-name="bar" unicode="|" 
d="M575 1565v-2048h-126v2048h126z" />
    <glyph glyph-name="braceright" unicode="}" 
d="M563 1112v-244q0 -152 55.5 -214t190.5 -62q7 0 22 1t23 1v-127q-8 0 -23 1t-22 1q-135 0 -190.5 -62t-55.5 -214v-242q0 -153 -22 -216.5t-76 -99.5q-39 -26 -97.5 -37.5t-160.5 -11.5h-41v125q8 0 23 -1t22 -1q120 0 163.5 47.5t43.5 198.5v240q0 166 43.5 235.5
t154.5 99.5q-111 31 -154.5 100.5t-43.5 235.5v242q0 149 -44 196.5t-169 47.5h-39v125h35q100 0 161 -12.5t103 -39.5q54 -35 76 -98t22 -215z" />
    <glyph glyph-name="asciitilde" unicode="~" horiz-adv-x="1706" 
d="M1530 627q-101 -72 -197.5 -108t-189.5 -36q-43 0 -90.5 9t-100.5 26q-30 10 -87 31q-202 72 -302 72q-83 0 -173.5 -37.5t-211.5 -122.5v133q105 73 202 109t185 36q56 0 116.5 -12.5t174.5 -52.5q14 -5 44 -16q158 -58 245 -58q84 0 174.5 37t210.5 121v-131z" />
    <glyph glyph-name="Adieresis" unicode="&#xc4;" horiz-adv-x="1360" 
d="M461 645h422l-177 515q-1 4 -4 13q-23 66 -30 119q-6 -31 -13.5 -60.5t-21.5 -72.5zM477 147v-147h-502v147h138l419 1180h-180v148h672v-148h-182l401 -1180h141v-147h-524v147h176l-116 351h-504l-117 -351h178zM760 1680v186h160v-186h-160zM440 1680v186h160v-186
h-160z" />
    <glyph glyph-name="Aring" unicode="&#xc5;" horiz-adv-x="1360" 
d="M465 1749q0 94 64 158.5t157 64.5q94 0 158.5 -64.5t64.5 -158.5q0 -93 -64.5 -157t-158.5 -64q-95 0 -158 63.5t-63 157.5zM571 1749q0 -48 35 -82.5t82 -34.5q48 0 81.5 34t33.5 83q0 50 -32.5 83.5t-82.5 33.5q-48 0 -82.5 -34t-34.5 -83zM477 147v-147h-502v147h138
l419 1180h-180v148h672v-148h-182l401 -1180h141v-147h-524v147h176l-116 351h-504l-117 -351h178zM461 645h422l-177 515q-1 4 -4 13q-23 66 -30 119q-6 -31 -13.5 -60.5t-21.5 -72.5z" />
    <glyph glyph-name="Ccedilla" unicode="&#xc7;" horiz-adv-x="1536" 
d="M1454 465q-57 -234 -225.5 -364t-415.5 -130q-327 0 -538.5 216.5t-211.5 549.5q0 329 209.5 547.5t526.5 218.5q141 0 255.5 -42.5t188.5 -123.5v138h160v-457h-152q-50 157 -159.5 235t-280.5 78q-249 0 -398 -162t-149 -432q0 -264 155 -429t402 -165q165 0 276.5 80
t174.5 242h182zM606 -422v86q76 -17 138.5 -26t107.5 -9q60 0 90.5 20.5t30.5 61.5q0 52 -31.5 75.5t-102.5 23.5q-16 0 -29.5 -0.5t-27.5 -1.5v192h74v-106h22q112 0 169 -45t57 -132q0 -89 -62.5 -135.5t-183.5 -46.5q-45 0 -104.5 10t-147.5 33z" />
    <glyph glyph-name="Eacute" unicode="&#xc9;" horiz-adv-x="1255" 
d="M55 0v147h160v1180h-160v148h1141v-400h-174v252h-612v-469h512v-162h-512v-549h612v289h174v-436h-1141zM559 1616l209 348h178l-281 -348h-106z" />
    <glyph glyph-name="Ntilde" unicode="&#xd1;" horiz-adv-x="1473" 
d="M414 147h161v-147h-509v147h165v1180h-165v148h368l623 -1074v926h-162v148h510v-148h-166v-1356h-147l-678 1164v-988zM1016 1798q-22 -91 -69 -134.5t-124 -43.5q-25 0 -37 1t-20 3l-97 27q-14 4 -25.5 6t-19.5 2q-34 0 -54.5 -14.5t-33.5 -46.5h-80q21 89 67.5 134.5
t117.5 45.5q10 0 22.5 -2.5t34.5 -9.5l88 -25q15 -4 29.5 -6t27.5 -2q37 0 60 16.5t33 48.5h80z" />
    <glyph glyph-name="Odieresis" unicode="&#xd6;" horiz-adv-x="1659" 
d="M70 737q0 326 217 546t542 220q129 0 240.5 -35t208.5 -106q151 -109 232 -271t81 -354q0 -324 -218 -545t-544 -221q-325 0 -542 220t-217 546zM268 737q0 -258 160.5 -426t400.5 -168q241 0 401.5 168t160.5 426q0 259 -160.5 426.5t-401.5 167.5q-240 0 -400.5 -167.5
t-160.5 -426.5zM909 1680v186h160v-186h-160zM589 1680v186h160v-186h-160z" />
    <glyph glyph-name="Udieresis" unicode="&#xdc;" horiz-adv-x="1456" 
d="M414 516q0 -204 73 -289.5t240 -85.5q168 0 241.5 86t73.5 289v811h-161v148h518v-148h-162v-811q0 -274 -126.5 -409.5t-383.5 -135.5t-382.5 135t-125.5 410v811h-162v148h516v-148h-159v-811zM809 1680v186h160v-186h-160zM489 1680v186h160v-186h-160z" />
    <glyph glyph-name="aacute" unicode="&#xe1;" horiz-adv-x="1262" 
d="M244 469q0 -150 92 -248t229 -98t228.5 98t91.5 248t-91.5 247t-228.5 97q-141 0 -231 -96.5t-90 -247.5zM1049 141h143v-141h-320v125q-57 -73 -141 -110.5t-190 -37.5q-205 0 -343.5 141.5t-138.5 350.5t139 351.5t343 142.5q103 0 185.5 -37t145.5 -111v123h320v-141
h-143v-656zM457 1075l209 348h178l-281 -348h-106z" />
    <glyph glyph-name="agrave" unicode="&#xe0;" horiz-adv-x="1262" 
d="M244 469q0 -150 92 -248t229 -98t228.5 98t91.5 248t-91.5 247t-228.5 97q-141 0 -231 -96.5t-90 -247.5zM1049 141h143v-141h-320v125q-57 -73 -141 -110.5t-190 -37.5q-205 0 -343.5 141.5t-138.5 350.5t139 351.5t343 142.5q103 0 185.5 -37t145.5 -111v123h320v-141
h-143v-656zM731 1075h-106l-281 348h178z" />
    <glyph glyph-name="acircumflex" unicode="&#xe2;" horiz-adv-x="1262" 
d="M244 469q0 -150 92 -248t229 -98t228.5 98t91.5 248t-91.5 247t-228.5 97q-141 0 -231 -96.5t-90 -247.5zM1049 141h143v-141h-320v125q-57 -73 -141 -110.5t-190 -37.5q-205 0 -343.5 141.5t-138.5 350.5t139 351.5t343 142.5q103 0 185.5 -37t145.5 -111v123h320v-141
h-143v-656zM307 1075l197 348h178l197 -348h-107l-178 242l-180 -242h-107z" />
    <glyph glyph-name="adieresis" unicode="&#xe4;" horiz-adv-x="1262" 
d="M244 469q0 -150 92 -248t229 -98t228.5 98t91.5 248t-91.5 247t-228.5 97q-141 0 -231 -96.5t-90 -247.5zM1049 141h143v-141h-320v125q-57 -73 -141 -110.5t-190 -37.5q-205 0 -343.5 141.5t-138.5 350.5t139 351.5t343 142.5q103 0 185.5 -37t145.5 -111v123h320v-141
h-143v-656zM674 1139v186h160v-186h-160zM354 1139v186h160v-186h-160z" />
    <glyph glyph-name="atilde" unicode="&#xe3;" horiz-adv-x="1262" 
d="M244 469q0 -150 92 -248t229 -98t228.5 98t91.5 248t-91.5 247t-228.5 97q-141 0 -231 -96.5t-90 -247.5zM1049 141h143v-141h-320v125q-57 -73 -141 -110.5t-190 -37.5q-205 0 -343.5 141.5t-138.5 350.5t139 351.5t343 142.5q103 0 185.5 -37t145.5 -111v123h320v-141
h-143v-656zM873 1257q-22 -91 -69 -134.5t-124 -43.5q-25 0 -37 1t-20 3l-97 27q-14 4 -25.5 6t-19.5 2q-34 0 -54.5 -14.5t-33.5 -46.5h-80q21 89 67.5 134.5t117.5 45.5q10 0 22.5 -2.5t34.5 -9.5l88 -25q15 -4 29.5 -6t27.5 -2q37 0 60 16.5t33 48.5h80z" />
    <glyph glyph-name="aring" unicode="&#xe5;" horiz-adv-x="1262" 
d="M485 1241q0 -50 33.5 -83.5t83.5 -33.5q49 0 83 34t34 83q0 48 -35 83.5t-82 35.5q-49 0 -83 -34.5t-34 -84.5zM379 1241q0 94 64.5 158.5t158.5 64.5t158.5 -64.5t64.5 -158.5q0 -93 -64.5 -157t-158.5 -64q-95 0 -159 63.5t-64 157.5zM1049 141h143v-141h-320v125
q-57 -73 -141 -110.5t-190 -37.5q-205 0 -343.5 141.5t-138.5 350.5t139 351.5t343 142.5q103 0 185.5 -37t145.5 -111v123h320v-141h-143v-656zM244 469q0 -150 92 -248t229 -98t228.5 98t91.5 248t-91.5 247t-228.5 97q-141 0 -231 -96.5t-90 -247.5z" />
    <glyph glyph-name="ccedilla" unicode="&#xe7;" horiz-adv-x="1006" 
d="M854 272l94 -92q-77 -100 -185 -152.5t-239 -52.5q-213 0 -339 133.5t-126 356.5q0 224 122.5 361t322.5 137q91 0 161 -28t126 -87v90h137v-324h-125q-40 101 -111 152t-170 51q-127 0 -204.5 -96.5t-77.5 -255.5q0 -161 83 -251.5t232 -90.5q86 0 160.5 37t138.5 112z
M291 -422v86q76 -17 138.5 -26t107.5 -9q60 0 90.5 20.5t30.5 61.5q0 52 -31.5 75.5t-102.5 23.5q-16 0 -29.5 -0.5t-27.5 -1.5v192h74v-106h22q112 0 169 -45t57 -132q0 -89 -62.5 -135.5t-183.5 -46.5q-45 0 -104.5 10t-147.5 33z" />
    <glyph glyph-name="eacute" unicode="&#xe9;" horiz-adv-x="1114" 
d="M242 555h630q-20 129 -100.5 196.5t-214.5 67.5t-214.5 -67.5t-100.5 -196.5zM1032 279q-65 -142 -191.5 -223t-285.5 -81q-223 0 -359.5 138t-136.5 366q0 219 136 351.5t362 132.5q224 0 361 -143t137 -380v-22h-813q10 -132 103.5 -213.5t234.5 -81.5q89 0 164.5 40.5
t123.5 115.5h164zM420 1075l209 348h178l-281 -348h-106z" />
    <glyph glyph-name="egrave" unicode="&#xe8;" horiz-adv-x="1114" 
d="M242 555h630q-20 129 -100.5 196.5t-214.5 67.5t-214.5 -67.5t-100.5 -196.5zM1032 279q-65 -142 -191.5 -223t-285.5 -81q-223 0 -359.5 138t-136.5 366q0 219 136 351.5t362 132.5q224 0 361 -143t137 -380v-22h-813q10 -132 103.5 -213.5t234.5 -81.5q89 0 164.5 40.5
t123.5 115.5h164zM694 1075h-106l-281 348h178z" />
    <glyph glyph-name="ecircumflex" unicode="&#xea;" horiz-adv-x="1114" 
d="M242 555h630q-20 129 -100.5 196.5t-214.5 67.5t-214.5 -67.5t-100.5 -196.5zM1032 279q-65 -142 -191.5 -223t-285.5 -81q-223 0 -359.5 138t-136.5 366q0 219 136 351.5t362 132.5q224 0 361 -143t137 -380v-22h-813q10 -132 103.5 -213.5t234.5 -81.5q89 0 164.5 40.5
t123.5 115.5h164zM270 1075l197 348h178l197 -348h-107l-178 242l-180 -242h-107z" />
    <glyph glyph-name="edieresis" unicode="&#xeb;" horiz-adv-x="1114" 
d="M242 555h630q-20 129 -100.5 196.5t-214.5 67.5t-214.5 -67.5t-100.5 -196.5zM1032 279q-65 -142 -191.5 -223t-285.5 -81q-223 0 -359.5 138t-136.5 366q0 219 136 351.5t362 132.5q224 0 361 -143t137 -380v-22h-813q10 -132 103.5 -213.5t234.5 -81.5q89 0 164.5 40.5
t123.5 115.5h164zM637 1139v186h160v-186h-160zM317 1139v186h160v-186h-160z" />
    <glyph glyph-name="iacute" unicode="&#xed;" horiz-adv-x="567" 
d="M387 141h164v-141h-500v141h162v656h-162v141h336v-797zM127 1075l209 348h178l-281 -348h-106z" />
    <glyph glyph-name="igrave" unicode="&#xec;" horiz-adv-x="567" 
d="M387 141h164v-141h-500v141h162v656h-162v141h336v-797zM401 1075h-106l-281 348h178z" />
    <glyph glyph-name="icircumflex" unicode="&#xee;" horiz-adv-x="567" 
d="M387 141h164v-141h-500v141h162v656h-162v141h336v-797zM-23 1075l197 348h178l197 -348h-107l-178 242l-180 -242h-107z" />
    <glyph glyph-name="idieresis" unicode="&#xef;" horiz-adv-x="567" 
d="M387 141h164v-141h-500v141h162v656h-162v141h336v-797zM344 1139v186h160v-186h-160zM24 1139v186h160v-186h-160z" />
    <glyph glyph-name="ntilde" unicode="&#xf1;" horiz-adv-x="1194" 
d="M1024 141h143v-141h-462v141h143v422q0 148 -38 195t-128 47q-73 0 -145 -39.5t-150 -122.5v-502h145v-141h-464v141h145v656h-145v141h319v-133q82 81 165.5 119.5t176.5 38.5q81 0 144.5 -28.5t103.5 -82.5q25 -33 36 -73t11 -117v-35v-486zM877 1257
q-22 -91 -69 -134.5t-124 -43.5q-25 0 -37 1t-20 3l-97 27q-14 4 -25.5 6t-19.5 2q-34 0 -54.5 -14.5t-33.5 -46.5h-80q21 89 67.5 134.5t117.5 45.5q10 0 22.5 -2.5t34.5 -9.5l88 -25q15 -4 29.5 -6t27.5 -2q37 0 60 16.5t33 48.5h80z" />
    <glyph glyph-name="oacute" unicode="&#xf3;" horiz-adv-x="1147" 
d="M59 471q0 210 147 351t367 141q221 0 367.5 -141t146.5 -351t-146.5 -352t-367.5 -142q-220 0 -367 142t-147 352zM242 471q0 -149 95 -247.5t236 -98.5q143 0 237.5 97.5t94.5 248.5t-94.5 248.5t-237.5 97.5q-141 0 -236 -98.5t-95 -247.5zM436 1075l209 348h178
l-281 -348h-106z" />
    <glyph glyph-name="ograve" unicode="&#xf2;" horiz-adv-x="1147" 
d="M59 471q0 210 147 351t367 141q221 0 367.5 -141t146.5 -351t-146.5 -352t-367.5 -142q-220 0 -367 142t-147 352zM242 471q0 -149 95 -247.5t236 -98.5q143 0 237.5 97.5t94.5 248.5t-94.5 248.5t-237.5 97.5q-141 0 -236 -98.5t-95 -247.5zM710 1075h-106l-281 348h178
z" />
    <glyph glyph-name="ocircumflex" unicode="&#xf4;" horiz-adv-x="1147" 
d="M59 471q0 210 147 351t367 141q221 0 367.5 -141t146.5 -351t-146.5 -352t-367.5 -142q-220 0 -367 142t-147 352zM242 471q0 -149 95 -247.5t236 -98.5q143 0 237.5 97.5t94.5 248.5t-94.5 248.5t-237.5 97.5q-141 0 -236 -98.5t-95 -247.5zM286 1075l197 348h178
l197 -348h-107l-178 242l-180 -242h-107z" />
    <glyph glyph-name="odieresis" unicode="&#xf6;" horiz-adv-x="1147" 
d="M59 471q0 210 147 351t367 141q221 0 367.5 -141t146.5 -351t-146.5 -352t-367.5 -142q-220 0 -367 142t-147 352zM242 471q0 -149 95 -247.5t236 -98.5q143 0 237.5 97.5t94.5 248.5t-94.5 248.5t-237.5 97.5q-141 0 -236 -98.5t-95 -247.5zM653 1139v186h160v-186h-160
zM333 1139v186h160v-186h-160z" />
    <glyph glyph-name="otilde" unicode="&#xf5;" horiz-adv-x="1147" 
d="M59 471q0 210 147 351t367 141q221 0 367.5 -141t146.5 -351t-146.5 -352t-367.5 -142q-220 0 -367 142t-147 352zM242 471q0 -149 95 -247.5t236 -98.5q143 0 237.5 97.5t94.5 248.5t-94.5 248.5t-237.5 97.5q-141 0 -236 -98.5t-95 -247.5zM852 1257
q-22 -91 -69 -134.5t-124 -43.5q-25 0 -37 1t-20 3l-97 27q-14 4 -25.5 6t-19.5 2q-34 0 -54.5 -14.5t-33.5 -46.5h-80q21 89 67.5 134.5t117.5 45.5q10 0 22.5 -2.5t34.5 -9.5l88 -25q15 -4 29.5 -6t27.5 -2q37 0 60 16.5t33 48.5h80z" />
    <glyph glyph-name="uacute" unicode="&#xfa;" horiz-adv-x="1176" 
d="M170 797h-143v141h319v-563q0 -148 38 -194t128 -46q74 0 146 39t149 121v502h-145v141h321v-795h143v-143h-319v135q-83 -82 -166.5 -121t-175.5 -39q-153 0 -224 81t-71 257v484zM451 1075l209 348h178l-281 -348h-106z" />
    <glyph glyph-name="ugrave" unicode="&#xf9;" horiz-adv-x="1176" 
d="M170 797h-143v141h319v-563q0 -148 38 -194t128 -46q74 0 146 39t149 121v502h-145v141h321v-795h143v-143h-319v135q-83 -82 -166.5 -121t-175.5 -39q-153 0 -224 81t-71 257v484zM725 1075h-106l-281 348h178z" />
    <glyph glyph-name="ucircumflex" unicode="&#xfb;" horiz-adv-x="1176" 
d="M170 797h-143v141h319v-563q0 -148 38 -194t128 -46q74 0 146 39t149 121v502h-145v141h321v-795h143v-143h-319v135q-83 -82 -166.5 -121t-175.5 -39q-153 0 -224 81t-71 257v484zM301 1075l197 348h178l197 -348h-107l-178 242l-180 -242h-107z" />
    <glyph glyph-name="udieresis" unicode="&#xfc;" horiz-adv-x="1176" 
d="M170 797h-143v141h319v-563q0 -148 38 -194t128 -46q74 0 146 39t149 121v502h-145v141h321v-795h143v-143h-319v135q-83 -82 -166.5 -121t-175.5 -39q-153 0 -224 81t-71 257v484zM668 1139v186h160v-186h-160zM348 1139v186h160v-186h-160z" />
    <glyph glyph-name="dagger" unicode="&#x2020;" 
d="M426 -240v1047h-238v-113h-147v383h147v-112h238v366h-111v144h394v-144h-111v-366h238v112h147v-383h-147v113h-238v-1047h-172z" />
    <glyph glyph-name="degree" unicode="&#xb0;" horiz-adv-x="674" 
d="M539 1171q0 84 -58.5 142.5t-142.5 58.5t-143.5 -58.5t-59.5 -142.5t59.5 -143t143.5 -59t142.5 59t58.5 143zM338 1454q117 0 200 -83t83 -200q0 -116 -83.5 -199t-201.5 -83t-199.5 82t-81.5 200q0 119 82.5 201t200.5 82z" />
    <glyph glyph-name="cent" unicode="&#xa2;" horiz-adv-x="1081" 
d="M410 182l212 639q-9 2 -20.5 3t-32.5 1q-125 0 -203.5 -100t-78.5 -262q0 -92 30 -161.5t93 -119.5zM250 -283l102 306q-116 60 -181 177.5t-65 266.5q0 222 125 364t318 142q26 0 54.5 -4.5t58.5 -12.5l79 238h101l-90 -270q33 -19 57.5 -43.5t44.5 -61.5l-4 142h119
v-343h-119q-24 65 -61.5 110.5t-83.5 66.5l-220 -658q29 -8 53.5 -12t47.5 -4q86 0 163 41.5t148 126.5l107 -99q-89 -110 -193 -164.5t-225 -54.5q-35 0 -70 5t-74 16l-92 -275h-100z" />
    <glyph glyph-name="sterling" unicode="&#xa3;" horiz-adv-x="1081" 
d="M74 160q120 18 172.5 87.5t52.5 211.5q0 40 -5.5 83t-17.5 91h-202v147h176q-36 118 -50 186.5t-14 120.5q0 163 112.5 270t287.5 107t280 -103.5t105 -277.5q0 -13 -3 -58q-1 -17 -1 -26h-170q0 8 1 21.5t1 19.5q0 132 -55 198.5t-164 66.5q-102 0 -155.5 -55.5
t-53.5 -159.5q0 -64 14.5 -139.5t44.5 -170.5h268v-147l-241 -1q9 -52 13.5 -96.5t4.5 -82.5q0 -72 -17.5 -130t-54.5 -110q74 -42 131 -62t105 -20q103 0 158 63.5t55 182.5v18h172v-47q0 -176 -94.5 -276.5t-259.5 -100.5q-83 0 -168.5 29.5t-179.5 89.5
q-62 -58 -122.5 -86.5t-125.5 -29.5v186z" />
    <glyph glyph-name="section" unicode="&#xa7;" 
d="M229 -231v278h136v-149h141q90 0 126 18.5t36 60.5q0 31 -22.5 69t-67.5 85l-342 356q-102 106 -136 170t-34 131q0 101 72 171.5t171 70.5q13 0 22 -0.5t17 -1.5q-75 77 -109 138t-34 118q0 98 75 144.5t234 46.5h281v-279h-136v150h-143q-90 0 -125 -18.5t-35 -61.5
q0 -30 22 -67t68 -85l342 -358q102 -106 136 -170t34 -131q0 -101 -72 -171.5t-171 -70.5q-13 0 -22 0.5t-17 1.5q76 -77 109.5 -137.5t33.5 -116.5q0 -98 -75.5 -145t-233.5 -47h-281zM330 639l172 -180q50 -54 93 -78.5t87 -24.5q41 0 68.5 27t27.5 68q0 35 -21.5 78.5
t-60.5 82.5l-172 181q-49 52 -93.5 77t-88.5 25q-41 0 -67.5 -27t-26.5 -67q0 -36 21.5 -79t60.5 -83z" />
    <glyph glyph-name="bullet" unicode="&#x2022;" horiz-adv-x="1208" 
d="M307 762q0 123 87 209t210 86q122 0 208.5 -86.5t86.5 -208.5t-87.5 -209.5t-209.5 -87.5q-123 0 -209 87t-86 210z" />
    <glyph glyph-name="paragraph" unicode="&#xb6;" 
d="M948 1401h-125v-1401h-94v1401h-182v-1401h-96v782q-173 8 -274 102.5t-101 245.5q0 157 107.5 253t285.5 96h479v-78z" />
    <glyph glyph-name="germandbls" unicode="&#xdf;" horiz-adv-x="1165" 
d="M47 0v141h150v858q0 251 98 377.5t293 126.5q167 0 278 -105t111 -263q0 -95 -42 -165.5t-134 -129.5q155 -57 230 -163.5t75 -270.5q0 -180 -106 -305.5t-255 -125.5q-17 0 -40 3.5t-74 15.5l19 147q24 -5 42 -7.5t31 -2.5q83 0 142 83.5t59 201.5q0 157 -91 247.5
t-249 90.5h-25v132q114 9 178 72.5t64 167.5q0 102 -60.5 164t-156.5 62q-114 0 -162.5 -78t-48.5 -275v-858h143v-141h-469z" />
    <glyph glyph-name="registered" unicode="&#xae;" horiz-adv-x="1706" 
d="M846 1065h-144v-291h148q123 0 175 33t52 108q0 79 -54.5 114.5t-176.5 35.5zM872 1157q178 0 264.5 -57t86.5 -174q0 -89 -53 -148.5t-144 -75.5l188 -385h-157l-176 365h-179v-365h-141v840h311zM1501 721q0 133 -48 251.5t-138 209.5q-94 93 -211.5 141.5t-251.5 48.5
q-132 0 -247 -47t-204 -137q-94 -95 -144 -214t-50 -249q0 -127 49 -244t141 -211q91 -92 208 -141t245 -49q131 0 249.5 48.5t213.5 141.5q91 90 139.5 206t48.5 245zM852 1460q150 0 284 -55.5t240 -161.5q102 -102 156.5 -235.5t54.5 -282.5q0 -151 -54.5 -283
t-158.5 -233q-109 -106 -243.5 -162.5t-278.5 -56.5q-145 0 -278.5 56t-239.5 163q-105 104 -160 237t-55 279q0 147 57 282t164 242q101 103 232 157t280 54z" />
    <glyph glyph-name="copyright" unicode="&#xa9;" horiz-adv-x="1706" 
d="M1065 911q-15 77 -70.5 120.5t-138.5 43.5q-117 0 -182.5 -92.5t-65.5 -259.5q0 -160 66.5 -252t181.5 -92q87 0 145.5 48.5t73.5 133.5h129q-11 -127 -109 -207t-245 -80q-176 0 -280.5 121t-104.5 326q0 208 107.5 332.5t287.5 124.5q137 0 230 -74.5t104 -192.5h-129z
M1501 725q0 130 -49 249t-139 210q-92 92 -210 140t-251 48q-132 0 -247.5 -47.5t-205.5 -138.5q-93 -95 -142.5 -214t-49.5 -247q0 -127 49 -244t141 -211q93 -92 209.5 -141t245.5 -49t248.5 50t214.5 142q91 90 138.5 205.5t47.5 247.5zM852 1460q151 0 285 -55t239 -160
q102 -102 156.5 -236t54.5 -284q0 -151 -54 -283t-157 -233q-109 -106 -244.5 -162.5t-279.5 -56.5q-146 0 -278 55.5t-238 161.5q-106 105 -161.5 238.5t-55.5 279.5q0 145 56.5 279.5t162.5 242.5q102 104 234 158.5t280 54.5z" />
    <glyph glyph-name="trademark" unicode="&#x2122;" horiz-adv-x="1706" 
d="M948 1456l160 -405l149 405h132v-534h-82v458l-172 -458h-54l-180 458v-458h-82v534h129zM694 1456v-67h-172v-467h-94v467h-174v67h440z" />
    <glyph glyph-name="acute" unicode="&#xb4;" 
d="M375 1075l209 348h178l-281 -348h-106z" />
    <glyph glyph-name="dieresis" unicode="&#xa8;" 
d="M592 1139v186h160v-186h-160zM272 1139v186h160v-186h-160z" />
    <glyph glyph-name="notequal" unicode="&#x2260;" horiz-adv-x="1706" 
d="M1298 1110l-196 -250h350v-115h-424l-211 -270h635v-115h-709l-251 -319l-89 70l197 249h-346v115h420l211 270h-631v115h704l252 320z" />
    <glyph glyph-name="AE" unicode="&#xc6;" horiz-adv-x="2036" 
d="M1049 498h-508l-201 -351h170v-147h-483v147h131l676 1180h-195v148h1341v-400h-174v252h-565v-469h467v-162h-467v-549h565v289h174v-436h-1093v147h162v351zM1049 645v682h-45l-381 -682h426z" />
    <glyph glyph-name="Oslash" unicode="&#xd8;" horiz-adv-x="1659" 
d="M1237 1163l-723 -919q73 -52 149.5 -76.5t165.5 -24.5q241 0 401.5 168t160.5 426q0 136 -37 237.5t-117 188.5zM424 313l729 924q-68 48 -144 71t-163 23q-254 0 -416 -166t-162 -428q0 -128 38.5 -232.5t117.5 -191.5zM399 102l-151 -198h-146l209 268
q-127 132 -184 266t-57 299q0 327 217 546.5t542 219.5q131 0 240 -33t193 -98l151 193h146l-209 -262q118 -112 179.5 -255.5t61.5 -310.5q0 -170 -65.5 -318.5t-190.5 -260.5q-102 -93 -228.5 -140t-277.5 -47q-124 0 -226 31.5t-204 99.5z" />
    <glyph glyph-name="infinity" unicode="&#x221e;" horiz-adv-x="1706" 
d="M905 559q51 -95 119 -141.5t156 -46.5q102 0 168.5 71t66.5 181q0 108 -61 179.5t-152 71.5q-85 0 -153.5 -72.5t-143.5 -242.5zM803 666q-51 95 -119 142.5t-154 47.5q-105 0 -171 -71t-66 -183q0 -108 61 -179t152 -71q85 0 152 69t145 245zM840 727q67 138 146 204
t175 66q134 0 226 -108.5t92 -272.5q0 -171 -82 -277t-213 -106q-96 0 -169 60t-149 201q-71 -138 -148 -201.5t-173 -63.5q-134 0 -226 109t-92 272q0 172 82.5 277.5t214.5 105.5q97 0 172 -63t144 -203z" />
    <glyph glyph-name="plusminus" unicode="&#xb1;" horiz-adv-x="1706" 
d="M1452 158v-117h-1198v117h1198zM913 1180v-344h539v-117h-539v-344h-118v344h-541v117h541v344h118z" />
    <glyph glyph-name="lessequal" unicode="&#x2264;" horiz-adv-x="1706" 
d="M1444 150v-117h-1182v117h1182zM1444 1067l-977 -324l977 -323v-125l-1182 399v101l1182 397v-125z" />
    <glyph glyph-name="greaterequal" unicode="&#x2265;" horiz-adv-x="1706" 
d="M1444 150v-117h-1182v117h1182zM1444 795v-101l-1182 -399v125l979 323l-979 324v125z" />
    <glyph glyph-name="yen" unicode="&#xa5;" horiz-adv-x="1343" 
d="M422 0v147h156v494h-441v113h377l-108 188h-269v113h205l-141 239h-154v144h508v-144h-145l268 -477l278 477h-143v144h483v-144h-151l-146 -239h209v-113h-272l-111 -188h383v-113h-440v-494h156v-147h-502z" />
    <glyph glyph-name="mu" unicode="&#xb5;" horiz-adv-x="1128" 
d="M362 1069l-126 -595q-8 -33 -11.5 -67t-3.5 -71q0 -109 57 -168t160 -59q125 0 208 101t128 308l121 551h156l-162 -754q-12 -52 -17.5 -84t-5.5 -51q0 -32 18.5 -48.5t53.5 -16.5q9 0 17.5 0.5t17.5 1.5l-27 -125q-21 -5 -44 -7.5t-48 -2.5q-70 0 -104.5 35t-40.5 112
q-41 -70 -117 -108.5t-172 -38.5q-87 0 -152.5 34t-109.5 103l-113 -545h-156l316 1495h157z" />
    <glyph glyph-name="partialdiff" unicode="&#x2202;" horiz-adv-x="1044" 
d="M754 604q13 81 19.5 161.5t6.5 158.5q0 140 -39.5 216.5t-111.5 76.5q-53 0 -117 -63.5t-109 -63.5q-29 0 -51 21.5t-22 51.5q0 59 68 105.5t163 46.5q171 0 273 -152.5t102 -412.5q0 -335 -139 -555t-344 -220q-147 0 -241.5 106.5t-94.5 272.5q0 189 108.5 316
t266.5 127q99 0 162.5 -47t99.5 -146zM709 483q0 117 -45 180.5t-127 63.5q-113 0 -184.5 -127.5t-71.5 -333.5q0 -117 44 -178t128 -61q111 0 183.5 128t72.5 328z" />
    <glyph glyph-name="summation" unicode="&#x2211;" horiz-adv-x="1346" 
d="M51 1473h1239v-166h-989l690 -744l-719 -792h1035v-164h-1289v139l738 813l-705 758v156z" />
    <glyph glyph-name="product" unicode="&#x220f;" horiz-adv-x="1528" 
d="M160 1473h1208v-1866h-201v1693h-809v-1693h-198v1866z" />
    <glyph glyph-name="pi" unicode="&#x3c0;" horiz-adv-x="1186" 
d="M1139 930h-185l-110 -516q-14 -66 -21.5 -114.5t-7.5 -74.5q0 -57 24 -81.5t81 -24.5q21 0 46 2.5t52 7.5l-29 -129l-5 -1q-64 -15 -99 -15q-110 0 -168 51.5t-58 150.5q0 48 11.5 121t44.5 230l84 393h-348l-197 -930h-158l197 930h-39q-55 0 -84.5 -31t-40.5 -100h-145
q26 153 94 211.5t223 58.5h866z" />
    <glyph glyph-name="integral" unicode="&#x222b;" horiz-adv-x="1020" 
d="M301 -268q103 0 116 664q3 141 5 216q12 503 102 719.5t281 216.5q76 0 122 -39t46 -104q0 -48 -31 -77.5t-82 -29.5q-53 0 -85 35t-32 92q0 8 -6 15.5t-14 7.5q-105 0 -119 -634q-3 -157 -6 -245q-10 -308 -31.5 -461t-62.5 -247q-49 -114 -123 -173t-168 -59
q-73 0 -119.5 38t-46.5 97q0 53 31.5 84t83.5 31q47 0 79.5 -29t32.5 -67q0 -24 7.5 -37.5t19.5 -13.5z" />
    <glyph glyph-name="ordfeminine" unicode="&#xaa;" horiz-adv-x="946" 
d="M182 1145q0 -105 69.5 -173.5t172.5 -68.5t171.5 68.5t68.5 173.5t-68.5 173t-171.5 68q-106 0 -174 -68t-68 -173zM786 915h109v-98h-240v88q-44 -52 -106.5 -78t-142.5 -26q-154 0 -257.5 99t-103.5 245t104 246t257 100q76 0 139 -26t110 -76v86h240v-101h-109v-459z
" />
    <glyph glyph-name="ordmasculine" unicode="&#xba;" horiz-adv-x="860" 
d="M45 1147q0 147 109.5 245.5t275.5 98.5t275.5 -98.5t109.5 -245.5t-110 -246.5t-275 -99.5q-164 0 -274.5 99.5t-110.5 246.5zM182 1147q0 -104 71.5 -173t176.5 -69q107 0 178.5 68.5t71.5 173.5t-71.5 173.5t-178.5 68.5q-105 0 -176.5 -69t-71.5 -173z" />
    <glyph glyph-name="Omega" unicode="&#x3a9;" horiz-adv-x="1573" 
d="M1473 156v-156h-590v150q193 111 296 279t103 374q0 251 -137 405t-359 154q-221 0 -359 -155t-138 -404q0 -205 103 -373.5t298 -279.5v-150h-590v156h332q-164 133 -242.5 285t-78.5 335q0 329 188.5 533t486.5 204q299 0 487.5 -202.5t188.5 -530.5
q0 -186 -78.5 -338.5t-242.5 -285.5h332z" />
    <glyph glyph-name="ae" unicode="&#xe6;" horiz-adv-x="1747" 
d="M758 301q0 75 -68 118.5t-188 43.5q-106 0 -166 -43t-60 -119q0 -79 59.5 -128.5t156.5 -49.5q116 0 191 50.5t75 127.5zM852 152q-71 -85 -170.5 -131t-212.5 -46q-165 0 -269 87.5t-104 226.5q0 141 107.5 230t277.5 89q80 0 147 -19.5t120 -58.5v97q0 88 -70 138
t-195 50q-70 0 -133 -12t-127 -37l-61 127q78 36 163 53t185 17q126 0 216 -38.5t151 -117.5q62 78 145.5 117t187.5 39q209 0 343.5 -147.5t134.5 -381.5v-16h-783q20 -145 98.5 -220t208.5 -75q105 0 173 36t122 120h152q-58 -147 -175.5 -225.5t-281.5 -78.5
q-114 0 -196 41.5t-154 135.5zM905 561h604q-27 123 -105 188.5t-198 65.5q-119 0 -191.5 -61t-109.5 -193z" />
    <glyph glyph-name="oslash" unicode="&#xf8;" horiz-adv-x="1147" 
d="M825 702l-413 -536q44 -21 84 -31t77 -10q143 0 237.5 97.5t94.5 248.5q0 71 -18.5 125t-61.5 106zM319 242l412 534q-40 21 -79 31t-79 10q-141 0 -236 -98t-95 -248q0 -67 18.5 -122t58.5 -107zM315 41l-151 -197h-152l207 267q-75 61 -117.5 156.5t-42.5 203.5
q0 209 147.5 350.5t366.5 141.5q71 0 133.5 -15t122.5 -45l154 199h150l-207 -268q81 -75 121 -165.5t40 -197.5q0 -210 -146.5 -352t-367.5 -142q-70 0 -133 15.5t-125 48.5z" />
    <glyph glyph-name="questiondown" unicode="&#xbf;" horiz-adv-x="1108" 
d="M588 1503q58 0 96.5 -38t38.5 -95q0 -58 -39 -96.5t-96 -38.5t-95 39t-38 96q0 56 38.5 94.5t94.5 38.5zM664 1116l-1 -483q-15 1 -30.5 1.5t-34.5 0.5q-125 0 -199.5 -70t-74.5 -186q0 -113 61.5 -177.5t171.5 -64.5q111 0 170 62.5t70 189.5h165q-1 -195 -108 -304.5
t-297 -109.5q-193 0 -303.5 105t-110.5 287q0 173 94.5 286t254.5 131v332h172z" />
    <glyph glyph-name="exclamdown" unicode="&#xa1;" horiz-adv-x="653" 
d="M399 1112l39 -1112h-221l39 1112h143zM193 1366q0 57 38 94t97 37q56 0 94.5 -37.5t38.5 -93.5q0 -57 -38.5 -96t-94.5 -39q-58 0 -96.5 38.5t-38.5 96.5z" />
    <glyph glyph-name="logicalnot" unicode="&#xac;" horiz-adv-x="1706" 
d="M1452 858v-502h-115v385h-1083v117h1198z" />
    <glyph glyph-name="radical" unicode="&#x221a;" horiz-adv-x="1288" 
d="M1288 1647v-82h-119l-594 -1606h-53l-323 893l-119 -43l-23 68l262 92l265 -729l522 1407h182z" />
    <glyph glyph-name="florin" unicode="&#x192;" horiz-adv-x="1081" 
d="M-6 -217q41 -13 74 -19t63 -6q178 0 257 585l9 72l45 335h-233v131h256l31 180q35 202 119 302.5t219 100.5q56 0 106.5 -9.5t87.5 -27.5l-35 -137q-39 15 -72 22t-63 7q-83 0 -127.5 -60.5t-66.5 -207.5l-27 -170h227v-131h-248l-32 -256q-77 -604 -166.5 -746.5
t-286.5 -142.5q-37 0 -80.5 7.5t-97.5 22.5z" />
    <glyph glyph-name="approxequal" unicode="&#x2248;" horiz-adv-x="1706" 
d="M1530 453q-107 -75 -202 -110.5t-187 -35.5q-98 0 -288 69.5t-290 69.5q-82 0 -169.5 -35.5t-215.5 -123.5v131q106 73 202 109t185 36q111 0 301.5 -68.5t276.5 -68.5q85 0 173.5 35.5t213.5 122.5v-131zM1530 803q-104 -73 -200 -108.5t-187 -35.5q-100 0 -290 69
t-290 69q-83 0 -171.5 -36t-213.5 -122v131q106 73 202 109t185 36q111 0 300.5 -68.5t277.5 -68.5q87 0 175 35t212 121v-131z" />
    <glyph glyph-name="Delta" unicode="&#x2206;" horiz-adv-x="1356" 
d="M1122 158l-444 1138l-445 -1138h889zM780 1473l586 -1473h-1374l586 1473h202z" />
    <glyph glyph-name="guillemotleft" unicode="&#xab;" horiz-adv-x="1020" 
d="M756 150l-258 311l258 313h170l-262 -313l262 -311h-170zM385 150l-258 311l258 313h172l-264 -313l264 -311h-172z" />
    <glyph glyph-name="guillemotright" unicode="&#xbb;" horiz-adv-x="1020" 
d="M633 150h-170l264 311l-264 313h170l258 -313zM264 150h-170l262 311l-262 313h170l258 -313z" />
    <glyph glyph-name="ellipsis" unicode="&#x2026;" horiz-adv-x="2048" 
d="M342 -25q-58 0 -96.5 38t-38.5 96q0 57 39 96t96 39t96.5 -39.5t39.5 -95.5t-39.5 -95t-96.5 -39zM1024 -25q-58 0 -96.5 38t-38.5 96q0 57 39 96t96 39t96.5 -39.5t39.5 -95.5t-39.5 -95t-96.5 -39zM1708 -25q-58 0 -96.5 38t-38.5 96q0 57 39 96t96 39t96.5 -39.5
t39.5 -95.5t-39.5 -95t-96.5 -39z" />
    <glyph glyph-name="nonbreakingspace" unicode="&#xa0;" horiz-adv-x="1081" 
 />
    <glyph glyph-name="Agrave" unicode="&#xc0;" horiz-adv-x="1360" 
d="M461 645h422l-177 515q-1 4 -4 13q-23 66 -30 119q-6 -31 -13.5 -60.5t-21.5 -72.5zM477 147v-147h-502v147h138l419 1180h-180v148h672v-148h-182l401 -1180h141v-147h-524v147h176l-116 351h-504l-117 -351h178zM817 1616h-106l-281 348h178z" />
    <glyph glyph-name="Atilde" unicode="&#xc3;" horiz-adv-x="1360" 
d="M461 645h422l-177 515q-1 4 -4 13q-23 66 -30 119q-6 -31 -13.5 -60.5t-21.5 -72.5zM477 147v-147h-502v147h138l419 1180h-180v148h672v-148h-182l401 -1180h141v-147h-524v147h176l-116 351h-504l-117 -351h178zM959 1798q-22 -91 -69 -134.5t-124 -43.5q-25 0 -37 1
t-20 3l-97 27q-14 4 -25.5 6t-19.5 2q-34 0 -54.5 -14.5t-33.5 -46.5h-80q21 89 67.5 134.5t117.5 45.5q10 0 22.5 -2.5t34.5 -9.5l88 -25q15 -4 29.5 -6t27.5 -2q37 0 60 16.5t33 48.5h80z" />
    <glyph glyph-name="Otilde" unicode="&#xd5;" horiz-adv-x="1659" 
d="M70 737q0 326 217 546t542 220q129 0 240.5 -35t208.5 -106q151 -109 232 -271t81 -354q0 -324 -218 -545t-544 -221q-325 0 -542 220t-217 546zM268 737q0 -258 160.5 -426t400.5 -168q241 0 401.5 168t160.5 426q0 259 -160.5 426.5t-401.5 167.5q-240 0 -400.5 -167.5
t-160.5 -426.5zM1108 1798q-22 -91 -69 -134.5t-124 -43.5q-25 0 -37 1t-20 3l-97 27q-14 4 -25.5 6t-19.5 2q-34 0 -54.5 -14.5t-33.5 -46.5h-80q21 89 67.5 134.5t117.5 45.5q10 0 22.5 -2.5t34.5 -9.5l88 -25q15 -4 29.5 -6t27.5 -2q37 0 60 16.5t33 48.5h80z" />
    <glyph glyph-name="OE" unicode="&#x152;" horiz-adv-x="2036" 
d="M1980 0h-1151q-342 0 -550.5 203.5t-208.5 533.5t209 534t550 204h1151v-400h-174v252h-565v-469h467v-162h-467v-549h565v289h174v-436zM1049 270v932q0 70 -21 97.5t-70 27.5h-137q-238 0 -395.5 -166t-157.5 -424q0 -257 157.5 -424.5t395.5 -167.5h137q49 0 70 28
t21 97z" />
    <glyph glyph-name="oe" unicode="&#x153;" horiz-adv-x="1903" 
d="M1063 561h602q-27 124 -104.5 189t-196.5 65t-191.5 -61t-109.5 -193zM242 471q0 -149 95 -247.5t236 -98.5q143 0 237.5 97.5t94.5 248.5t-94.5 248.5t-237.5 97.5q-141 0 -236 -98.5t-95 -247.5zM985 182q-90 -108 -187 -156.5t-225 -48.5q-220 0 -367 142t-147 352
t147 351t367 141q130 0 226.5 -48t185.5 -155q64 104 157.5 153.5t225.5 49.5q209 0 343 -147.5t134 -381.5v-16h-782q20 -145 98.5 -220t208.5 -75q105 0 172 36t121 120h154q-58 -147 -175.5 -225.5t-281.5 -78.5q-126 0 -219.5 52t-155.5 155z" />
    <glyph glyph-name="endash" unicode="&#x2013;" 
d="M0 420v117h1024v-117h-1024z" />
    <glyph glyph-name="emdash" unicode="&#x2014;" horiz-adv-x="2048" 
d="M0 537h2048v-117h-2048v117z" />
    <glyph glyph-name="quotedblleft" unicode="&#x201c;" horiz-adv-x="868" 
d="M692 1069h-176l117 406h186zM256 1069h-176l117 406h186z" />
    <glyph glyph-name="quotedblright" unicode="&#x201d;" horiz-adv-x="868" 
d="M692 1069h-176l117 406h186zM256 1069h-176l117 406h186z" />
    <glyph glyph-name="quoteleft" unicode="&#x2018;" horiz-adv-x="432" 
d="M256 1069h-176l117 406h186z" />
    <glyph glyph-name="quoteright" unicode="&#x2019;" horiz-adv-x="432" 
d="M256 1069h-176l117 406h186z" />
    <glyph glyph-name="divide" unicode="&#xf7;" horiz-adv-x="1706" 
d="M854 365q47 0 81 -34t34 -81t-33.5 -81t-81.5 -34t-81.5 33.5t-33.5 81.5t34 81.5t81 33.5zM1452 670v-117h-1198v117h1198zM854 1085q48 0 81.5 -33.5t33.5 -80.5q0 -48 -33.5 -81.5t-81.5 -33.5q-49 0 -82 33.5t-33 81.5q0 47 34 80.5t81 33.5z" />
    <glyph glyph-name="lozenge" unicode="&#x25ca;" horiz-adv-x="1012" 
d="M506 1409l-385 -817l385 -825l385 825zM506 1653l500 -1061l-500 -1069l-500 1069z" />
    <glyph glyph-name="ydieresis" unicode="&#xff;" horiz-adv-x="1026" 
d="M592 -426h-490v141h172l144 326l-316 756h-125v141h451v-141h-152l234 -551l244 551h-144v141h432v-141h-124l-486 -1082h160v-141zM594 1139v186h160v-186h-160zM274 1139v186h160v-186h-160z" />
    <glyph glyph-name="Ydieresis" unicode="&#x178;" horiz-adv-x="1343" 
d="M770 147h162v-147h-516v147h159v512l-387 668h-155v148h518v-148h-148l275 -489l287 489h-146v148h496v-148h-158l-387 -668v-512zM752 1680v186h160v-186h-160zM432 1680v186h160v-186h-160z" />
    <glyph glyph-name="fraction" unicode="&#x2215;" horiz-adv-x="342" 
d="M-342 -29l901 1493h123l-901 -1493h-123z" />
    <glyph glyph-name="currency" unicode="&#xa4;" horiz-adv-x="1241" 
d="M936 887q0 129 -91.5 221t-221.5 92t-222 -92t-92 -221q0 -131 91.5 -223.5t222.5 -92.5q129 0 221 93t92 223zM365 1212q60 46 122.5 68.5t133.5 22.5t135.5 -22.5t124.5 -68.5l204 207l72 -73l-205 -205q43 -57 64.5 -121t21.5 -135t-21.5 -135.5t-64.5 -120.5
l205 -205l-72 -74l-204 207q-57 -44 -121.5 -66t-138.5 -22t-136.5 21.5t-119.5 66.5l-207 -207l-72 74l207 205q-44 58 -66 122t-22 134q0 69 22 133.5t66 122.5l-207 205l72 73z" />
    <glyph glyph-name="guilsinglleft" unicode="&#x2039;" horiz-adv-x="649" 
d="M385 150l-258 311l258 313h172l-264 -313l264 -311h-172z" />
    <glyph glyph-name="guilsinglright" unicode="&#x203a;" horiz-adv-x="649" 
d="M264 150h-170l262 311l-262 313h170l258 -313z" />
    <glyph glyph-name="fi" unicode="&#xf001;" horiz-adv-x="1217" 
d="M760 1171v189h254v-189h-254zM1014 141h162v-141h-500v141h162v656h-162v141h338v-797zM575 0h-522v141h160v656h-160v141h160v154q0 205 68.5 294t222.5 89q23 0 39.5 -0.5t36.5 -2.5v-131h-48q-81 0 -112 -42t-31 -187v-174h191v-141h-191v-656h186v-141z" />
    <glyph glyph-name="fl" unicode="&#xf002;" horiz-adv-x="1217" 
d="M838 1331h-162v144h338v-1334h162v-141h-500v141h162v1190zM575 0h-522v141h160v656h-160v141h160v154q0 205 68.5 294t222.5 89q23 0 39.5 -0.5t36.5 -2.5v-131h-48q-81 0 -112 -42t-31 -187v-174h191v-141h-191v-656h186v-141z" />
    <glyph glyph-name="daggerdbl" unicode="&#x2021;" 
d="M598 346h238v113h147v-385h-147v112h-238v-284h111v-142h-394v142h111v284h-238v-112h-147v385h147v-113h238v543h-238v-113h-147v383h147v-112h238v284h-111v144h394v-144h-111v-284h238v112h147v-383h-147v113h-238v-543z" />
    <glyph glyph-name="periodcentered" unicode="&#xb7;" horiz-adv-x="541" 
d="M270 618q-58 0 -96.5 37.5t-38.5 94.5t39 96t96 39t96.5 -39.5t39.5 -95.5t-39.5 -94t-96.5 -38z" />
    <glyph glyph-name="quotesinglbase" unicode="&#x201a;" horiz-adv-x="432" 
d="M256 -188h-176l117 405h186z" />
    <glyph glyph-name="quotedblbase" unicode="&#x201e;" horiz-adv-x="868" 
d="M692 -188h-176l117 405h186zM256 -188h-176l117 405h186z" />
    <glyph glyph-name="perthousand" unicode="&#x2030;" horiz-adv-x="2656" 
d="M2224 143q86 0 144.5 59t58.5 146q0 89 -58.5 148t-144.5 59t-144.5 -59.5t-58.5 -147.5q0 -86 59 -145.5t144 -59.5zM2572 348q0 -146 -101.5 -247t-246.5 -101q-144 0 -246 101.5t-102 246.5q0 146 101 247t247 101t247 -101t101 -247zM434 883q87 0 145 58.5t58 145.5
q0 89 -58.5 148t-144.5 59t-145.5 -59.5t-59.5 -147.5q0 -85 60 -144.5t145 -59.5zM782 1087q0 -145 -101.5 -246.5t-246.5 -101.5q-143 0 -245.5 101.5t-102.5 246.5q0 147 101 248t247 101t247 -101t101 -248zM1319 1464h125l-961 -1493h-121zM1370 143q87 0 146 59
t59 146q0 89 -59 148t-146 59q-86 0 -144.5 -59.5t-58.5 -147.5q0 -86 59 -145.5t144 -59.5zM1720 348q0 -145 -102.5 -246.5t-247.5 -101.5q-143 0 -244.5 101.5t-101.5 246.5q0 147 100.5 247.5t245.5 100.5q146 0 248 -101t102 -247z" />
    <glyph glyph-name="Acircumflex" unicode="&#xc2;" horiz-adv-x="1360" 
d="M461 645h422l-177 515q-1 4 -4 13q-23 66 -30 119q-6 -31 -13.5 -60.5t-21.5 -72.5zM477 147v-147h-502v147h138l419 1180h-180v148h672v-148h-182l401 -1180h141v-147h-524v147h176l-116 351h-504l-117 -351h178zM393 1616l197 348h178l197 -348h-107l-178 242
l-180 -242h-107z" />
    <glyph glyph-name="Ecircumflex" unicode="&#xca;" horiz-adv-x="1255" 
d="M55 0v147h160v1180h-160v148h1141v-400h-174v252h-612v-469h512v-162h-512v-549h612v289h174v-436h-1141zM409 1616l197 348h178l197 -348h-107l-178 242l-180 -242h-107z" />
    <glyph glyph-name="Aacute" unicode="&#xc1;" horiz-adv-x="1360" 
d="M461 645h422l-177 515q-1 4 -4 13q-23 66 -30 119q-6 -31 -13.5 -60.5t-21.5 -72.5zM477 147v-147h-502v147h138l419 1180h-180v148h672v-148h-182l401 -1180h141v-147h-524v147h176l-116 351h-504l-117 -351h178zM543 1616l209 348h178l-281 -348h-106z" />
    <glyph glyph-name="Edieresis" unicode="&#xcb;" horiz-adv-x="1255" 
d="M55 0v147h160v1180h-160v148h1141v-400h-174v252h-612v-469h512v-162h-512v-549h612v289h174v-436h-1141zM776 1680v186h160v-186h-160zM456 1680v186h160v-186h-160z" />
    <glyph glyph-name="Egrave" unicode="&#xc8;" horiz-adv-x="1255" 
d="M55 0v147h160v1180h-160v148h1141v-400h-174v252h-612v-469h512v-162h-512v-549h612v289h174v-436h-1141zM833 1616h-106l-281 348h178z" />
    <glyph glyph-name="Iacute" unicode="&#xcd;" horiz-adv-x="627" 
d="M410 147h161v-147h-516v147h160v1180h-160v148h516v-148h-161v-1180zM176 1616l209 348h178l-281 -348h-106z" />
    <glyph glyph-name="Icircumflex" unicode="&#xce;" horiz-adv-x="627" 
d="M410 147h161v-147h-516v147h160v1180h-160v148h516v-148h-161v-1180zM26 1616l197 348h178l197 -348h-107l-178 242l-180 -242h-107z" />
    <glyph glyph-name="Idieresis" unicode="&#xcf;" horiz-adv-x="627" 
d="M410 147h161v-147h-516v147h160v1180h-160v148h516v-148h-161v-1180zM393 1680v186h160v-186h-160zM73 1680v186h160v-186h-160z" />
    <glyph glyph-name="Igrave" unicode="&#xcc;" horiz-adv-x="627" 
d="M410 147h161v-147h-516v147h160v1180h-160v148h516v-148h-161v-1180zM450 1616h-106l-281 348h178z" />
    <glyph glyph-name="Oacute" unicode="&#xd3;" horiz-adv-x="1659" 
d="M70 737q0 326 217 546t542 220q129 0 240.5 -35t208.5 -106q151 -109 232 -271t81 -354q0 -324 -218 -545t-544 -221q-325 0 -542 220t-217 546zM268 737q0 -258 160.5 -426t400.5 -168q241 0 401.5 168t160.5 426q0 259 -160.5 426.5t-401.5 167.5q-240 0 -400.5 -167.5
t-160.5 -426.5zM692 1616l209 348h178l-281 -348h-106z" />
    <glyph glyph-name="Ocircumflex" unicode="&#xd4;" horiz-adv-x="1659" 
d="M70 737q0 326 217 546t542 220q129 0 240.5 -35t208.5 -106q151 -109 232 -271t81 -354q0 -324 -218 -545t-544 -221q-325 0 -542 220t-217 546zM268 737q0 -258 160.5 -426t400.5 -168q241 0 401.5 168t160.5 426q0 259 -160.5 426.5t-401.5 167.5q-240 0 -400.5 -167.5
t-160.5 -426.5zM542 1616l197 348h178l197 -348h-107l-178 242l-180 -242h-107z" />
    <glyph glyph-name="apple" unicode="&#xf000;" horiz-adv-x="1618" 
d="M836 1216q-1 6 -1.5 14t-0.5 23q0 124 95 229.5t236 131.5q1 -10 1.5 -23t0.5 -39q0 -131 -103.5 -234.5t-203.5 -103.5h-8q-3 0 -7.5 1t-8.5 1zM1505 403q-114 -247 -205 -342.5t-204 -95.5q-50 0 -131.5 33t-122.5 33q-45 0 -131 -33t-127 -33q-64 0 -128.5 44
t-129.5 132q-102 140 -157.5 295.5t-55.5 300.5q0 219 125 356.5t323 137.5q68 0 155 -34t124 -34q34 0 121.5 35t152.5 35q110 0 198 -40t161 -124q-102 -65 -151.5 -145.5t-49.5 -182.5q0 -113 60 -200t173 -138z" />
    <glyph glyph-name="Ograve" unicode="&#xd2;" horiz-adv-x="1659" 
d="M70 737q0 326 217 546t542 220q129 0 240.5 -35t208.5 -106q151 -109 232 -271t81 -354q0 -324 -218 -545t-544 -221q-325 0 -542 220t-217 546zM268 737q0 -258 160.5 -426t400.5 -168q241 0 401.5 168t160.5 426q0 259 -160.5 426.5t-401.5 167.5q-240 0 -400.5 -167.5
t-160.5 -426.5zM966 1616h-106l-281 348h178z" />
    <glyph glyph-name="Uacute" unicode="&#xda;" horiz-adv-x="1456" 
d="M414 516q0 -204 73 -289.5t240 -85.5q168 0 241.5 86t73.5 289v811h-161v148h518v-148h-162v-811q0 -274 -126.5 -409.5t-383.5 -135.5t-382.5 135t-125.5 410v811h-162v148h516v-148h-159v-811zM592 1616l209 348h178l-281 -348h-106z" />
    <glyph glyph-name="Ucircumflex" unicode="&#xdb;" horiz-adv-x="1456" 
d="M414 516q0 -204 73 -289.5t240 -85.5q168 0 241.5 86t73.5 289v811h-161v148h518v-148h-162v-811q0 -274 -126.5 -409.5t-383.5 -135.5t-382.5 135t-125.5 410v811h-162v148h516v-148h-159v-811zM442 1616l197 348h178l197 -348h-107l-178 242l-180 -242h-107z" />
    <glyph glyph-name="Ugrave" unicode="&#xd9;" horiz-adv-x="1456" 
d="M414 516q0 -204 73 -289.5t240 -85.5q168 0 241.5 86t73.5 289v811h-161v148h518v-148h-162v-811q0 -274 -126.5 -409.5t-383.5 -135.5t-382.5 135t-125.5 410v811h-162v148h516v-148h-159v-811zM866 1616h-106l-281 348h178z" />
    <glyph glyph-name="dotlessi" unicode="&#x131;" horiz-adv-x="567" 
d="M387 141h164v-141h-500v141h162v656h-162v141h336v-797z" />
    <glyph glyph-name="circumflex" unicode="&#x2c6;" 
d="M225 1075l197 348h178l197 -348h-107l-178 242l-180 -242h-107z" />
    <glyph glyph-name="tilde" unicode="&#x2dc;" 
d="M791 1257q-22 -91 -69 -134.5t-124 -43.5q-25 0 -37 1t-20 3l-97 27q-14 4 -25.5 6t-19.5 2q-34 0 -54.5 -14.5t-33.5 -46.5h-80q21 89 67.5 134.5t117.5 45.5q10 0 22.5 -2.5t34.5 -9.5l88 -25q15 -4 29.5 -6t27.5 -2q37 0 60 16.5t33 48.5h80z" />
    <glyph glyph-name="macron" unicode="&#xaf;" 
d="M258 1098v119h508v-119h-508z" />
    <glyph glyph-name="breve" unicode="&#x2d8;" 
d="M229 1384h90q7 -76 52 -110.5t141 -34.5t141 34.5t52 110.5h90q-11 -141 -79 -206.5t-204 -65.5t-204.5 66t-78.5 206z" />
    <glyph glyph-name="dotaccent" unicode="&#x2d9;" 
d="M428 1133v198h168v-198h-168z" />
    <glyph glyph-name="ring" unicode="&#x2da;" 
d="M371 1303q0 -61 40.5 -102.5t100.5 -41.5t101.5 42t41.5 102q0 59 -41.5 101t-101.5 42t-100.5 -41.5t-40.5 -101.5zM264 1303q0 103 72 175t176 72t176 -72t72 -175q0 -105 -72 -176.5t-176 -71.5t-176 71.5t-72 176.5z" />
    <glyph glyph-name="cedilla" unicode="&#xb8;" 
d="M299 -422v86q76 -17 138.5 -26t107.5 -9q60 0 90.5 20.5t30.5 61.5q0 52 -31.5 75.5t-102.5 23.5q-16 0 -29.5 -0.5t-27.5 -1.5v192h74v-106h22q112 0 169 -45t57 -132q0 -89 -62.5 -135.5t-183.5 -46.5q-45 0 -104.5 10t-147.5 33z" />
    <glyph glyph-name="hungarumlaut" unicode="&#x2dd;" 
d="M580 1075l168 348h155l-239 -348h-84zM322 1075l147 348h158l-221 -348h-84z" />
    <glyph glyph-name="ogonek" unicode="&#x2db;" 
d="M614 0q-70 -64 -102.5 -117.5t-32.5 -105.5q0 -45 22 -63.5t74 -18.5h80v-129h-77q-115 0 -169.5 40t-54.5 124q0 64 39.5 122.5t149.5 147.5h71z" />
    <glyph glyph-name="caron" unicode="&#x2c7;" 
d="M225 1423h107l180 -243l178 243h107l-197 -348h-178z" />
    <glyph glyph-name="Lslash" unicode="&#x141;" horiz-adv-x="1116" 
d="M1077 436v-436h-1022v147h160v420l-154 -84v156l154 84v604h-160v148h541v-148h-186v-496l274 152v-158l-274 -151v-527h493v289h174z" />
    <glyph glyph-name="lslash" unicode="&#x142;" horiz-adv-x="573" 
d="M207 1331h-162v144h338v-598l192 124v-174l-192 -122v-564h162v-141h-500v141h162v449l-182 -121v170l182 129v563z" />
    <glyph glyph-name="Scaron" unicode="&#x160;" horiz-adv-x="1360" 
d="M328 160v-160h-166v506h166q43 -172 156.5 -268.5t271.5 -96.5q119 0 199.5 74t80.5 184q0 96 -65 155.5t-217 100.5l-154 41q-220 60 -320 157.5t-100 252.5q0 179 122 288t323 109q122 0 212.5 -39.5t147.5 -117.5v129h143v-424h-143q-38 138 -134.5 212t-238.5 74
q-113 0 -184.5 -60.5t-71.5 -156.5q0 -89 58 -140t217 -91l119 -31q255 -63 369 -169.5t114 -278.5q0 -190 -138 -314.5t-350 -124.5q-120 0 -234.5 51.5t-182.5 137.5zM393 1964h107l180 -243l178 243h107l-197 -348h-178z" />
    <glyph glyph-name="scaron" unicode="&#x161;" horiz-adv-x="973" 
d="M223 0h-137v305h137q38 -87 125 -138.5t197 -51.5q91 0 148 38.5t57 100.5q0 49 -32 76t-110 41l-221 39q-153 26 -225 94t-72 184q0 127 92.5 201t253.5 74q98 0 174 -29t107 -76v80h139v-289h-139q-49 97 -116.5 141t-166.5 44q-84 0 -134 -37t-50 -99
q0 -49 36.5 -77.5t116.5 -42.5l193 -33q175 -30 244 -91t69 -178q0 -135 -100 -218t-264 -83q-94 0 -173 29.5t-149 89.5v-94zM200 1423h107l180 -243l178 243h107l-197 -348h-178z" />
    <glyph glyph-name="Zcaron" unicode="&#x17d;" horiz-adv-x="1327" 
d="M1016 147v304h166v-451h-1037v147l801 1180h-612v-254h-166v402h1014v-148l-807 -1180h641zM377 1964h107l180 -243l178 243h107l-197 -348h-178z" />
    <glyph glyph-name="zcaron" unicode="&#x17e;" horiz-adv-x="995" 
d="M909 0h-807v141l572 656h-398v-172h-151v313h766v-141l-576 -656h443v201h151v-342zM211 1423h107l180 -243l178 243h107l-197 -348h-178z" />
    <glyph glyph-name="brokenbar" unicode="&#xa6;" 
d="M575 408v-758h-126v758h126zM575 1432v-758h-126v758h126z" />
    <glyph glyph-name="Eth" unicode="&#xd0;" horiz-adv-x="1497" 
d="M55 0v147h160v562h-215v151h215v467h-160v148h545q397 0 613.5 -193t216.5 -545q0 -351 -216.5 -544t-613.5 -193h-545zM410 1327v-467h374v-151h-374v-562h184q306 0 470.5 152.5t164.5 437.5t-164.5 437.5t-470.5 152.5h-184z" />
    <glyph glyph-name="eth" unicode="&#xf0;" horiz-adv-x="1147" 
d="M688 948l-156 201l-313 -66l-29 127l254 52l-155 213h186l137 -179l271 54l32 -125l-215 -41l187 -242q125 -162 164 -258.5t39 -204.5q0 -218 -145.5 -360t-369.5 -142q-220 0 -368 141.5t-148 350.5t149.5 351.5t366.5 142.5q31 0 58.5 -3.5t54.5 -11.5zM573 817
q-141 0 -236 -98t-95 -248t95 -248t236 -98q143 0 237.5 97.5t94.5 248.5t-94.5 248.5t-237.5 97.5z" />
    <glyph glyph-name="Yacute" unicode="&#xdd;" horiz-adv-x="1343" 
d="M770 147h162v-147h-516v147h159v512l-387 668h-155v148h518v-148h-148l275 -489l287 489h-146v148h496v-148h-158l-387 -668v-512zM535 1616l209 348h178l-281 -348h-106z" />
    <glyph glyph-name="yacute" unicode="&#xfd;" horiz-adv-x="1026" 
d="M592 -426h-490v141h172l144 326l-316 756h-125v141h451v-141h-152l234 -551l244 551h-144v141h432v-141h-124l-486 -1082h160v-141zM377 1075l209 348h178l-281 -348h-106z" />
    <glyph glyph-name="Thorn" unicode="&#xde;" horiz-adv-x="1200" 
d="M559 1053h-149v-627h178q190 0 286.5 78.5t96.5 234.5t-103.5 235t-308.5 79zM590 147v-147h-535v147h160v1180h-160v148h516v-148h-161v-131h198q276 0 419.5 -117.5t143.5 -341.5q0 -216 -148 -337t-415 -121h-198v-132h180z" />
    <glyph glyph-name="thorn" unicode="&#xfe;" horiz-adv-x="1223" 
d="M659 123q138 0 229 97.5t91 248.5q0 149 -91.5 246.5t-228.5 97.5t-228 -96.5t-91 -247.5q0 -150 91.5 -248t227.5 -98zM174 1331h-143v144h319v-650q69 70 150.5 104t183.5 34q204 0 341.5 -142.5t137.5 -351.5q0 -208 -138 -350t-341 -142q-112 0 -189 32t-145 104
v-398h154v-141h-473v141h143v1616z" />
    <glyph glyph-name="minus" unicode="&#x2212;" horiz-adv-x="1706" 
d="M1452 670v-119h-1198v119h1198z" />
    <glyph glyph-name="multiply" unicode="&#xd7;" horiz-adv-x="1706" 
d="M858 692l475 477l82 -82l-475 -477l475 -475l-82 -82l-475 475l-477 -475l-80 82l475 475l-475 477l80 82z" />
    <glyph glyph-name="onesuperior" unicode="&#xb9;" horiz-adv-x="713" 
d="M184 575v89h119v688h-119v86h238v-774h121v-89h-359z" />
    <glyph glyph-name="twosuperior" unicode="&#xb2;" horiz-adv-x="713" 
d="M78 1120q0 8 -1 23.5t-1 23.5q0 139 77.5 214t221.5 75q119 0 194.5 -64.5t75.5 -164.5q0 -55 -25.5 -109t-76.5 -108l-332 -346h328v155h118v-244h-585v82l379 412q35 37 53 78t18 84q0 60 -41.5 93.5t-115.5 33.5q-88 0 -130 -48t-42 -147v-43h-115z" />
    <glyph glyph-name="threesuperior" unicode="&#xb3;" horiz-adv-x="713" 
d="M172 847q3 -92 50.5 -142t133.5 -50q74 0 121 45.5t47 114.5q0 77 -54 119.5t-151 42.5h-4v84h4q90 0 142.5 42t52.5 111q0 67 -40 105.5t-109 38.5q-94 0 -138.5 -48.5t-44.5 -150.5v-10h-110v16q0 135 78 212t215 77q123 0 196.5 -64.5t73.5 -172.5q0 -69 -38.5 -118.5
t-111.5 -74.5q75 -15 117.5 -71.5t42.5 -139.5q0 -113 -82 -183.5t-215 -70.5q-129 0 -208 71.5t-79 186.5v31z" />
    <glyph glyph-name="onequarter" unicode="&#xbc;" horiz-adv-x="1704" 
d="M1427 295v233q0 34 3 64t8 55l-256 -352h245zM1298 0v82h129v135h-356v78l367 510h98v-510h113v-78h-113v-135h113v-82h-351zM340 -29l901 1493h123l-901 -1493h-123zM174 633v82h115v641h-115v82h227v-723h115v-82h-342z" />
    <glyph glyph-name="onehalf" unicode="&#xbd;" horiz-adv-x="1704" 
d="M1100 508q-2 15 -3 25.5t-1 17.5q0 130 74.5 200t211.5 70q114 0 186 -59.5t72 -153.5q0 -51 -24 -101t-74 -101l-317 -324h313v145h113v-227h-559v78l362 383q33 35 50.5 72.5t17.5 76.5q0 57 -40.5 89t-111.5 32q-83 0 -123.5 -45t-40.5 -137q0 -16 0.5 -24.5
t1.5 -16.5h-108zM340 -29l901 1493h123l-901 -1493h-123zM174 633v82h115v641h-115v82h227v-723h115v-82h-342z" />
    <glyph glyph-name="threequarters" unicode="&#xbe;" horiz-adv-x="1704" 
d="M1427 295v233q0 34 3 64t8 55l-256 -352h245zM1298 0v82h129v135h-356v78l367 510h98v-510h113v-78h-113v-135h113v-82h-351zM340 -29l901 1493h123l-901 -1493h-123zM166 886q3 -86 48 -132.5t126 -46.5q70 0 115 42t45 107q0 72 -51.5 112t-143.5 40h-4v77h4
q85 0 136 39.5t51 104.5q0 64 -38.5 99.5t-107.5 35.5q-88 0 -130 -45.5t-42 -140.5v-9h-106v15q0 125 74 196.5t204 71.5q118 0 188 -60t70 -161q0 -66 -36 -112t-105 -68q71 -14 112 -66.5t41 -128.5q0 -106 -78.5 -173t-205.5 -67q-123 0 -199 67.5t-76 174.5
q0 10 0.5 16t2.5 13z" />
    <glyph glyph-name="franc" unicode="&#x20a3;" horiz-adv-x="1903" 
d="M55 0v147h160v1180h-160v148h1141v-400h-174v252h-612v-469h501v-162h-501v-549h208v-147h-563zM1552 791q52 90 126.5 132t184.5 42q6 0 20 -1t21 -1v-158h-49q-143 0 -223 -75.5t-80 -211.5v-377h145v-141h-464v141h145v656h-145v141h319v-147z" />
    <glyph glyph-name="Gbreve" unicode="&#x11e;" horiz-adv-x="1692" 
d="M1473 0h-166v160q-109 -98 -224 -143.5t-254 -45.5q-329 0 -544 218t-215 548q0 331 214.5 548.5t544.5 217.5q128 0 240 -44.5t205 -133.5v150h162v-510h-133q-54 179 -174.5 272.5t-299.5 93.5q-240 0 -400.5 -167.5t-160.5 -426.5q0 -257 160.5 -425.5t400.5 -168.5
q182 0 303 90.5t175 266.5h-369v159h698v-159h-163v-500zM563 1925h90q7 -76 52 -110.5t141 -34.5t141 34.5t52 110.5h90q-11 -141 -79 -206.5t-204 -65.5t-204.5 66t-78.5 206z" />
    <glyph glyph-name="gbreve" unicode="&#x11f;" horiz-adv-x="1247" 
d="M1049 145v-34q0 -152 -11 -219.5t-37 -114.5q-53 -98 -165 -151.5t-263 -53.5q-175 0 -295.5 76t-166.5 217h186q31 -72 100 -109t174 -37q161 0 231 69t70 232v93q-68 -72 -143 -104t-176 -32q-214 0 -354 140.5t-140 351.5q0 209 138 351.5t344 142.5
q101 0 181.5 -33.5t149.5 -104.5v113h320v-141h-143v-652zM244 469q0 -150 92 -248t229 -98t228.5 98t91.5 248t-91.5 247t-228.5 97q-141 0 -231 -96.5t-90 -247.5zM342 1384h90q7 -76 52 -110.5t141 -34.5t141 34.5t52 110.5h90q-11 -141 -79 -206.5t-204 -65.5t-204.5 66
t-78.5 206z" />
    <glyph glyph-name="Idotaccent" unicode="&#x130;" horiz-adv-x="627" 
d="M410 147h161v-147h-516v147h160v1180h-160v148h516v-148h-161v-1180zM229 1674v198h168v-198h-168z" />
    <glyph glyph-name="Scedilla" unicode="&#x15e;" horiz-adv-x="1360" 
d="M328 160v-160h-166v506h166q43 -172 156.5 -268.5t271.5 -96.5q119 0 199.5 74t80.5 184q0 96 -65 155.5t-217 100.5l-154 41q-220 60 -320 157.5t-100 252.5q0 179 122 288t323 109q122 0 212.5 -39.5t147.5 -117.5v129h143v-424h-143q-38 138 -134.5 212t-238.5 74
q-113 0 -184.5 -60.5t-71.5 -156.5q0 -89 58 -140t217 -91l119 -31q255 -63 369 -169.5t114 -278.5q0 -190 -138 -314.5t-350 -124.5q-120 0 -234.5 51.5t-182.5 137.5zM467 -422v86q76 -17 138.5 -26t107.5 -9q60 0 90.5 20.5t30.5 61.5q0 52 -31.5 75.5t-102.5 23.5
q-16 0 -29.5 -0.5t-27.5 -1.5v192h74v-106h22q112 0 169 -45t57 -132q0 -89 -62.5 -135.5t-183.5 -46.5q-45 0 -104.5 10t-147.5 33z" />
    <glyph glyph-name="scedilla" unicode="&#x15f;" horiz-adv-x="973" 
d="M223 0h-137v305h137q38 -87 125 -138.5t197 -51.5q91 0 148 38.5t57 100.5q0 49 -32 76t-110 41l-221 39q-153 26 -225 94t-72 184q0 127 92.5 201t253.5 74q98 0 174 -29t107 -76v80h139v-289h-139q-49 97 -116.5 141t-166.5 44q-84 0 -134 -37t-50 -99
q0 -49 36.5 -77.5t116.5 -42.5l193 -33q175 -30 244 -91t69 -178q0 -135 -100 -218t-264 -83q-94 0 -173 29.5t-149 89.5v-94zM274 -422v86q76 -17 138.5 -26t107.5 -9q60 0 90.5 20.5t30.5 61.5q0 52 -31.5 75.5t-102.5 23.5q-16 0 -29.5 -0.5t-27.5 -1.5v192h74v-106h22
q112 0 169 -45t57 -132q0 -89 -62.5 -135.5t-183.5 -46.5q-45 0 -104.5 10t-147.5 33z" />
    <glyph glyph-name="Cacute" unicode="&#x106;" horiz-adv-x="1536" 
d="M1454 465q-57 -234 -225.5 -364t-415.5 -130q-327 0 -538.5 216.5t-211.5 549.5q0 329 209.5 547.5t526.5 218.5q141 0 255.5 -42.5t188.5 -123.5v138h160v-457h-152q-50 157 -159.5 235t-280.5 78q-249 0 -398 -162t-149 -432q0 -264 155 -429t402 -165q165 0 276.5 80
t174.5 242h182zM678 1616l209 348h178l-281 -348h-106z" />
    <glyph glyph-name="cacute" unicode="&#x107;" horiz-adv-x="1006" 
d="M854 272l94 -92q-77 -100 -185 -152.5t-239 -52.5q-213 0 -339 133.5t-126 356.5q0 224 122.5 361t322.5 137q91 0 161 -28t126 -87v90h137v-324h-125q-40 101 -111 152t-170 51q-127 0 -204.5 -96.5t-77.5 -255.5q0 -161 83 -251.5t232 -90.5q86 0 160.5 37t138.5 112z
M367 1075l209 348h178l-281 -348h-106z" />
    <glyph glyph-name="Ccaron" unicode="&#x10c;" horiz-adv-x="1536" 
d="M1454 465q-57 -234 -225.5 -364t-415.5 -130q-327 0 -538.5 216.5t-211.5 549.5q0 329 209.5 547.5t526.5 218.5q141 0 255.5 -42.5t188.5 -123.5v138h160v-457h-152q-50 157 -159.5 235t-280.5 78q-249 0 -398 -162t-149 -432q0 -264 155 -429t402 -165q165 0 276.5 80
t174.5 242h182zM528 1964h107l180 -243l178 243h107l-197 -348h-178z" />
    <glyph glyph-name="ccaron" unicode="&#x10d;" horiz-adv-x="1006" 
d="M854 272l94 -92q-77 -100 -185 -152.5t-239 -52.5q-213 0 -339 133.5t-126 356.5q0 224 122.5 361t322.5 137q91 0 161 -28t126 -87v90h137v-324h-125q-40 101 -111 152t-170 51q-127 0 -204.5 -96.5t-77.5 -255.5q0 -161 83 -251.5t232 -90.5q86 0 160.5 37t138.5 112z
M217 1423h107l180 -243l178 243h107l-197 -348h-178z" />
    <glyph glyph-name="dcroat" unicode="&#x111;" horiz-adv-x="1251" 
d="M872 1331h-157v144h334v-275h176v-117h-176v-942h143v-141h-320v113q-68 -72 -143 -104t-176 -32q-214 0 -354 140.5t-140 351.5q0 209 138 351.5t344 142.5q101 0 181.5 -33.5t149.5 -104.5v258h-315v117h315v131zM244 469q0 -150 92 -248t229 -98t228.5 98t91.5 248
t-91.5 247t-228.5 97q-141 0 -231 -96.5t-90 -247.5z" />
    <glyph glyph-name="sfthyphen" unicode="&#xad;" horiz-adv-x="631" 
d="M57 397v164h516v-164h-516z" />
    <glyph glyph-name="periodcentered" unicode="&#x2219;" horiz-adv-x="541" 
d="M270 618q-58 0 -96.5 37.5t-38.5 94.5t39 96t96 39t96.5 -39.5t39.5 -95.5t-39.5 -94t-96.5 -38z" />
    </font>
</defs>
</svg>
